<svg width="1108" height="451" viewBox="0 0 1108 451" fill="none" xmlns="http://www.w3.org/2000/svg">
<path d="M87.4377 49.635C105.009 7.00656 154.882 -11.9837 196.356 8.16233L1108 450.999H0V261.765L87.4377 49.635Z" fill="url(#paint0_linear_9203_2483)"/>
<mask id="mask0_9203_2483" style="mask-type:alpha" maskUnits="userSpaceOnUse" x="0" y="0" width="1108" height="451">
<path d="M87.4377 49.635C105.009 7.00656 154.882 -11.9837 196.356 8.16233L1108 450.999H0V261.765L87.4377 49.635Z" fill="#00A550"/>
</mask>
<g mask="url(#mask0_9203_2483)">
<g opacity="0.6279">
<path d="M-218.312 342.767C-171.915 421.828 -144.112 471.99 -74.6509 394.728C-5.19022 317.466 56.1694 191.482 118.187 219.15C180.205 246.819 230.122 449.931 295.381 434.782C360.64 419.632 386.209 205.184 448.95 194.428C511.692 183.671 544.547 371.181 599.309 364.104C654.071 357.026 716.93 132.194 819.423 123.296" stroke="#57DD98" stroke-width="0.843" stroke-miterlimit="10"/>
<path d="M-222.118 345.24C-176.326 422.725 -147.997 470.328 -79.9832 395.313C-40.5998 352.216 -3.93197 293.595 31.4557 256.556C58.0486 228.623 84.3692 212.918 110.846 224.644C172.285 252.002 222.547 448.386 287.287 434.429C351.72 420.369 379.131 212.592 442.256 200.368C504.527 188.311 538.353 366.911 592.739 359.934C649.926 352.767 718.59 134.697 820.383 122.481" stroke="#57DD98" stroke-width="0.8079" stroke-miterlimit="10"/>
<path d="M-226.059 347.784C-180.874 423.695 -152.29 468.533 -85.3144 395.903C-46.311 353.589 -9.61598 296.232 25.2528 260.386C51.4309 233.339 77.3367 218.52 103.609 230.176C164.402 257.086 215.006 447.085 279.364 434.253C343.004 421.52 372.157 220.039 435.87 206.418C497.737 193.197 532.502 362.647 586.614 355.805C646.262 348.447 720.593 137.205 821.789 121.707" stroke="#57DD98" stroke-width="0.7728" stroke-miterlimit="10"/>
<path d="M-229.865 350.256C-185.321 424.695 -156.278 466.836 -90.5449 396.522C-51.7517 355.164 -15.097 298.934 19.1505 264.246C44.7768 238.152 70.4049 224.151 96.5077 235.636C156.619 262.201 207.635 445.609 271.474 433.97C334.356 422.462 365.283 227.515 429.381 212.427C490.742 198.008 526.445 358.309 580.35 351.739C642.357 344.155 722.524 139.914 823.022 121.098" stroke="#57DD98" stroke-width="0.7376" stroke-miterlimit="10"/>
<path d="M-233.704 352.829C-189.766 425.693 -160.367 465.104 -95.7736 397.14C-57.2581 356.6 -20.7133 301.702 13.05 268.104C38.2268 242.999 63.4749 229.782 89.3056 241.06C148.837 267.314 200.163 444.097 263.621 433.583C325.744 423.301 358.481 234.786 423.064 218.266C484.022 202.683 520.663 353.834 574.295 347.4C638.762 339.624 724.699 142.247 824.497 120.114" stroke="#57DD98" stroke-width="0.7025" stroke-miterlimit="10"/>
<path d="M-237.613 355.27C-194.316 426.662 -164.458 463.377 -101.107 397.729C-62.8695 358.007 -26.2974 304.374 6.84462 271.934C31.5719 247.817 56.4746 235.28 82.066 246.591C140.951 272.398 192.654 442.693 255.695 433.406C316.958 424.315 351.572 242.369 416.539 224.382C477.093 207.636 514.673 349.637 568.03 343.338C634.923 335.473 726.562 144.822 825.763 119.407" stroke="#57DD98" stroke-width="0.6674" stroke-miterlimit="10"/>
<path d="M-241.451 357.842C-198.76 427.659 -168.478 461.78 -106.37 398.449C-68.3421 359.682 -31.9474 307.243 0.710453 275.893C24.9207 252.627 49.5109 241.012 74.9324 252.151C133.239 277.647 185.251 441.316 247.808 433.121C308.313 425.255 344.598 249.808 410.189 230.322C470.339 212.412 508.823 345.366 561.804 339.167C631.157 331.111 728.531 147.426 827.068 118.591" stroke="#57DD98" stroke-width="0.6323" stroke-miterlimit="10"/>
<path d="M-245.361 360.277C-203.311 428.622 -172.57 460.046 -111.669 398.929C-73.9197 360.98 -37.6001 309.77 -5.56355 279.579C18.1972 257.301 42.4073 246.469 67.659 257.437C125.284 282.587 177.743 439.564 239.849 432.698C299.493 426.023 337.655 257.145 403.63 236.192C463.342 217.221 502.799 340.923 555.506 334.86C627.32 326.612 730.462 149.79 828.3 117.638" stroke="#57DD98" stroke-width="0.5971" stroke-miterlimit="10"/>
<path d="M-249.2 362.855C-207.858 429.59 -176.591 458.456 -116.933 399.654C-79.3585 362.559 -43.2162 312.544 -11.6986 283.545C11.5103 262.221 35.545 252.242 60.4898 263.105C117.536 287.945 170.305 438.297 231.891 432.623C290.675 427.139 330.679 264.932 397.209 242.343C456.483 222.31 496.913 336.761 549.312 330.934C623.551 322.598 732.396 152.502 829.637 117.068" stroke="#57DD98" stroke-width="0.562" stroke-miterlimit="10"/>
<path d="M-253.038 365.434C-212.303 430.594 -180.611 456.866 -122.161 400.278C-84.7968 364.138 -48.7296 315.352 -17.8332 287.512C4.85866 267.038 28.5808 257.98 53.2535 268.637C109.653 293.029 162.799 436.893 224.004 432.344C282.029 428.086 323.808 272.413 390.722 248.357C449.592 227.16 490.926 332.564 543.085 326.771C619.785 318.243 734.364 155.113 830.906 116.361" stroke="#57DD98" stroke-width="0.5269" stroke-miterlimit="10"/>
<path d="M-256.949 367.872C-216.854 431.56 -184.601 455.171 -127.496 400.864C-90.4096 365.542 -54.4175 317.986 -24.0401 291.338C-1.79773 271.853 21.5444 263.578 46.0125 274.165C101.731 298.212 155.324 435.383 215.974 432.13C273.14 429.062 316.76 280.06 384.23 254.368C442.662 232.11 484.969 328.262 536.751 322.568C615.878 313.951 736.261 157.583 832.104 115.514" stroke="#57DD98" stroke-width="0.4918" stroke-miterlimit="10"/>
<path d="M-260.786 370.446C-221.297 432.56 -188.62 453.576 -132.757 401.586C-95.8811 367.219 -60.0317 320.755 -30.1732 295.3C-8.48261 276.768 14.5817 269.311 38.88 279.727C94.0192 303.463 147.922 434.009 208.156 431.983C264.495 430.004 310.026 287.811 377.811 260.514C435.805 237.195 479.051 324.197 530.559 318.639C612.146 309.831 738.264 160.429 833.442 114.939" stroke="#57DD98" stroke-width="0.4566" stroke-miterlimit="10"/>
<path d="M-264.592 372.924C-225.745 433.566 -192.506 451.921 -137.953 402.11C-101.253 368.596 -65.5805 323.326 -36.2409 299.064C-14.9651 281.418 7.68442 274.847 31.8128 285.091C86.1684 308.448 140.381 432.368 200.198 431.57C255.779 430.816 303.05 295.259 371.391 266.326C428.912 242.048 473.13 319.798 524.4 314.273C608.412 305.376 740.231 162.7 834.813 113.928" stroke="#57DD98" stroke-width="0.4215" stroke-miterlimit="10"/>
<path d="M-268.534 375.463C-230.293 434.53 -196.528 450.327 -143.422 402.761C-106.897 370.101 -71.4371 326.128 -42.5818 302.956C-21.8578 286.264 0.514006 280.511 24.4379 290.686C78.3514 313.664 132.874 430.959 192.274 431.388C246.995 431.826 296.21 302.974 364.867 272.438C422.052 247.133 467.141 315.597 518.102 310.309C604.54 301.322 742.164 165.408 836.046 113.319" stroke="#57DD98" stroke-width="0.3864" stroke-miterlimit="10"/>
<path d="M-272.339 377.93C-234.739 435.524 -200.515 448.624 -148.617 403.273C-112.302 371.568 -76.9844 328.687 -48.7503 306.673C-28.5781 290.934 -6.48406 286 17.1676 295.968C70.4 318.601 125.369 429.203 184.353 430.86C238.248 432.386 289.27 310.308 358.448 278.237C415.195 251.871 461.223 311.185 511.944 305.93C600.808 296.854 744.166 167.906 837.487 112.432" stroke="#57DD98" stroke-width="0.3513" stroke-miterlimit="10"/>
<path d="M-276.28 380.473C-239.287 436.493 -204.536 447.034 -153.983 403.964C-117.878 373.214 -82.7035 331.426 -54.9884 310.605C-35.231 295.751 -13.5517 291.703 9.8954 301.602C62.5487 323.924 117.862 427.799 176.292 430.75C229.361 433.365 282.293 318.095 351.822 284.318C408.198 257.028 455.132 306.953 505.477 301.799C597.006 292.601 746.168 170.414 838.755 111.725" stroke="#57DD98" stroke-width="0.3161" stroke-miterlimit="10"/>
<path d="M-280.088 382.946C-243.7 437.391 -208.356 445.511 -159.214 404.585C-123.285 374.688 -88.2204 334.231 -61.0918 314.466C-41.8861 300.566 -20.4847 297.336 2.79259 307.063C54.7993 328.938 110.388 426.29 168.504 430.503C220.712 434.309 275.588 325.745 345.536 290.399C401.474 262.047 449.346 302.823 499.417 297.804C593.167 288.447 748.031 172.987 840.056 110.913" stroke="#57DD98" stroke-width="0.281" stroke-miterlimit="10"/>
<path d="M-283.929 385.518C-248.183 438.491 -212.277 443.949 -164.446 405.202C-128.727 376.26 -93.8048 336.896 -67.2298 318.425C-48.576 305.479 -27.4176 302.965 -4.34487 312.622C46.9806 334.152 103.016 424.811 160.613 430.218C211.995 435.112 268.746 333.458 339.182 296.339C394.749 267.062 443.492 298.552 493.324 293.565C589.5 284.12 750.031 175.488 841.356 110.097" stroke="#57DD98" stroke-width="0.2459" stroke-miterlimit="10"/>
<path d="M-287.836 387.959C-252.696 439.357 -216.299 442.359 -169.778 405.791C-134.167 377.839 -99.4893 339.532 -73.4332 322.255C-55.1942 310.194 -34.3483 308.601 -11.5824 318.154C39.164 339.373 95.5435 423.304 152.689 430.041C203.348 436.058 261.907 341.178 332.658 302.455C387.855 272.254 437.503 294.355 487.026 289.606C585.698 279.866 751.998 178.098 842.625 109.39" stroke="#57DD98" stroke-width="0.2108" stroke-miterlimit="10"/>
<path d="M-291.674 390.535C-257.277 440.426 -220.114 440.835 -175.005 406.411C-139.57 379.313 -105.172 342.166 -79.5327 326.116C-61.8454 315.009 -41.2773 314.234 -18.7836 323.58C31.3163 344.351 88.0402 421.556 144.7 429.724C194.533 436.83 254.966 348.861 326.206 308.364C381.067 277.136 431.551 290.053 480.733 285.302C581.897 275.61 753.899 180.569 843.929 108.578" stroke="#57DD98" stroke-width="0.1756" stroke-miterlimit="10"/>
<path d="M-295.479 393.008C-261.688 441.324 -223.931 439.312 -180.235 407.032C-144.907 380.924 -110.754 344.835 -85.634 329.977C-68.4639 319.721 -48.2082 319.867 -25.9191 329.144C23.6018 349.604 80.6701 420.081 136.913 429.477C185.921 437.671 248.263 356.51 319.819 314.409C374.309 282.258 425.665 285.888 474.607 281.17C578.23 271.628 755.969 183.211 845.334 107.8" stroke="#57DD98" stroke-width="0.1405" stroke-miterlimit="10"/>
<path d="M-299.423 395.544C-266.273 442.388 -227.989 437.816 -185.603 407.716C-150.418 382.7 -116.476 347.566 -91.9764 333.866C-75.358 324.563 -55.3802 325.527 -33.2609 334.633C15.5787 354.748 73.0938 418.532 128.885 429.257C177.067 438.54 241.387 364.324 313.329 320.415C367.448 287.339 419.675 281.683 468.343 277.1C574.392 267.469 757.934 185.813 846.6 107.086" stroke="#57DD98" stroke-width="0.1054" stroke-miterlimit="10"/>
<path d="M-303.23 398.014C-270.686 443.283 -231.808 436.289 -190.799 408.231C-155.722 384.205 -122.025 350.129 -98.0446 337.621C-81.9433 329.17 -62.2779 331.055 -40.3285 339.988C7.93212 359.793 65.724 416.713 121.029 428.87C168.385 439.241 234.683 371.971 306.873 326.321C360.724 292.355 413.754 277.275 462.148 272.827C570.657 263.006 759.969 188.213 847.936 106.168" stroke="#57DD98" stroke-width="0.070252" stroke-miterlimit="10"/>
<path d="M-307.17 400.561C-275.232 444.255 -235.658 434.874 -196.164 408.925C-161.195 385.889 -127.743 352.871 -104.281 341.556C-88.7317 334.058 -69.3441 336.761 -47.5992 345.625C0.0148103 364.982 58.2187 415.312 113.107 428.696C159.672 440.054 227.81 379.796 300.488 332.373C354.003 297.381 407.869 273.116 455.989 268.804C566.925 258.892 761.903 190.929 849.274 105.601" stroke="#57DD98" stroke-width="0.035126" stroke-miterlimit="10"/>
</g>
</g>
<defs>
<linearGradient id="paint0_linear_9203_2483" x1="554" y1="0.0976562" x2="554" y2="450.999" gradientUnits="userSpaceOnUse">
<stop stop-color="#02B589"/>
<stop offset="1" stop-color="#076F75"/>
</linearGradient>
</defs>
</svg>
