<svg width="603" height="344" viewBox="0 0 603 344" fill="none" xmlns="http://www.w3.org/2000/svg">
<g clip-path="url(#clip0_9203_2449)">
<g opacity="0.6279">
<path fill-rule="evenodd" clip-rule="evenodd" d="M85.9577 252.394C98.005 271.697 112.458 283.943 131.008 284.192C141.677 284.336 152.409 280.142 163.22 272.615C174.031 265.088 184.887 254.251 195.79 241.17C217.46 215.174 239.244 180.408 261.194 145.378L261.621 144.696C283.703 109.456 305.952 74.0058 328.38 47.1134C339.595 33.6655 350.871 22.3364 362.214 14.2376C373.557 6.13887 384.995 1.24878 396.525 0.731123C419.638 -0.30658 437.868 16.9494 453.377 43.8554C468.903 70.7904 481.828 107.609 494.265 146.133C497 154.604 499.711 163.157 502.421 171.708C512.045 202.069 521.657 232.395 532.27 258.854C539.069 275.807 546.271 291.152 554.138 303.888C562.008 316.626 570.524 326.723 579.939 333.21C598.754 346.173 619.905 346.438 642.886 338.127C665.888 329.808 690.662 312.913 716.617 291.647C739.602 272.815 763.476 250.588 787.832 227.912C790.972 224.988 794.121 222.056 797.277 219.124C824.897 193.456 853.06 167.706 881.144 146.153C909.231 124.598 931.903 113.008 950.79 109.641C969.719 106.266 984.815 111.157 997.678 122.462C1010.51 133.738 1021.1 151.38 1031.12 173.479C1040.58 194.352 1049.56 219.264 1059.42 246.648C1060.01 248.267 1060.59 249.894 1061.18 251.529L1060.12 251.912C1059.53 250.283 1058.95 248.662 1058.37 247.049C1048.49 219.647 1039.53 194.776 1030.09 173.945C1020.09 151.882 1009.58 134.422 996.932 123.309C984.319 112.224 969.568 107.439 950.988 110.751C932.365 114.072 909.866 125.534 881.832 147.048C853.795 168.564 825.668 194.281 798.046 219.95C794.891 222.882 791.742 225.814 788.601 228.738C764.25 251.41 740.348 273.664 717.333 292.52C691.354 313.804 666.459 330.801 643.27 339.188C620.059 347.583 598.499 347.369 579.297 334.139C569.704 327.529 561.089 317.289 553.177 304.481C545.263 291.669 538.033 276.258 531.221 259.275C520.592 232.772 510.962 202.392 501.336 172.024C498.628 163.479 495.92 154.936 493.19 146.48C480.749 107.946 467.856 71.2364 452.398 44.4189C436.923 17.5724 419.003 0.851602 396.576 1.85857C385.335 2.36321 374.105 7.13437 362.871 15.1556C351.637 23.1768 340.43 34.4263 329.247 47.8355C306.879 74.6573 284.672 110.035 262.579 145.295L262.122 146.024C240.194 181.018 218.377 215.837 196.658 241.892C185.722 255.012 174.793 265.933 163.865 273.541C152.937 281.149 141.976 285.468 130.992 285.321C111.87 285.064 97.1242 272.419 84.999 252.992C72.8714 233.56 63.2807 207.213 54.4967 179.279C51.0747 168.396 47.7764 157.277 44.4977 146.224C39.3497 128.87 34.2503 111.68 28.7973 95.8256C19.8702 69.8714 10.0405 47.6469 -2.38742 34.3121L-1.56055 33.5428C11.0466 47.0699 20.9383 69.5035 29.8656 95.4584C35.3236 111.327 40.438 128.567 45.5931 145.944C48.8708 156.993 52.165 168.097 55.5744 178.94C64.3571 206.87 73.9128 233.095 85.9577 252.394Z" fill="url(#paint0_linear_9203_2449)"/>
<path fill-rule="evenodd" clip-rule="evenodd" d="M94.4794 246.012C107.07 265.633 122.107 278.082 141.437 277.926C152.231 277.839 163.082 273.581 174 266.131C184.919 258.681 195.875 248.059 206.867 235.295C228.756 209.879 250.722 176.055 272.784 142.084L273.083 141.624C295.233 107.518 317.48 73.3009 339.801 47.4364C350.964 34.5025 362.161 23.6374 373.394 15.9136C384.627 8.18987 395.923 3.58841 407.274 3.22929L407.275 3.22928C430.115 2.5644 448.283 19.5144 463.844 45.7831C479.419 72.077 492.497 107.899 505.097 145.366C507.899 153.697 510.677 162.109 513.453 170.518C523.173 199.95 532.877 229.336 543.524 255.02C557.222 288.064 572.429 314.84 591.119 327.698C607.211 338.72 624.951 340.654 643.995 335.997C663.059 331.334 683.417 320.066 704.674 304.695L704.675 304.695C732.944 284.329 762.999 256.826 793.941 228.405L795.694 226.794C826.074 198.888 857.286 170.218 888.442 146.706C915.904 125.814 938.187 114.518 956.834 111.18C975.519 107.836 990.527 112.487 1003.37 123.397C1016.19 134.282 1026.83 151.379 1036.88 172.895C1046.93 194.417 1056.41 220.424 1066.87 249.169L1065.85 249.54C1055.39 220.781 1045.92 194.823 1035.89 173.353C1025.87 151.875 1015.3 134.951 1002.67 124.221C990.067 113.516 975.385 108.959 957.024 112.245C938.626 115.538 916.507 126.714 889.097 147.567L889.095 147.568C857.981 171.048 826.802 199.688 796.408 227.607L794.674 229.201C763.744 257.611 733.64 285.161 705.308 305.571C684.006 320.975 663.515 332.336 644.252 337.047C624.967 341.764 606.898 339.817 590.506 328.59L590.506 328.589C571.527 315.533 556.221 288.477 542.523 255.434C531.859 229.71 522.138 200.271 512.417 170.832C509.642 162.43 506.867 154.027 504.071 145.711C491.468 108.235 478.422 72.5167 462.912 46.3343C447.388 20.1267 429.511 3.66401 407.306 4.31041C396.23 4.66117 385.134 9.1539 374.008 16.8045C362.88 24.4556 351.752 35.2455 340.621 48.1425C318.357 73.9397 296.153 108.088 273.991 142.213L273.664 142.717C251.623 176.655 229.624 210.529 207.687 236C196.663 248.801 185.638 259.5 174.611 267.024C163.583 274.549 152.524 278.919 141.445 279.008C121.561 279.168 106.235 266.336 93.5679 246.596C80.8991 226.854 70.8058 200.075 61.4118 172.073C58.6507 163.843 55.9502 155.507 53.2621 147.21C46.7957 127.251 40.4016 107.516 33.4111 90.0037C23.5071 65.1931 12.4598 44.9979 -1.55584 34.9969L-0.926367 34.1166C13.3719 44.3193 24.5133 64.7935 34.4167 89.6027C41.4212 107.15 47.8333 126.941 54.3048 146.915C56.9903 155.204 59.6859 163.524 62.4383 171.729C71.833 199.733 81.8909 226.395 94.4794 246.012Z" fill="url(#paint1_linear_9203_2449)"/>
<path d="M1072.27 246.937C1030.82 134.187 1003.81 67.121 896.048 147.679C833.29 194.615 769.856 262.247 714.246 301.557C672.463 331.249 634.103 344.652 601.877 322.546C527.293 271.478 507.141 4.76618 417.844 5.97815C329.532 7.23625 240.127 269.539 151.495 271.967C71.8079 274.143 62.3848 72.5726 2.60807 39.3179" stroke="url(#paint2_linear_9203_2449)" stroke-width="0.7728" stroke-miterlimit="10"/>
<path d="M1077.98 244.579C1037.02 133.958 1008.72 70.3842 903.198 148.152C840.96 193.863 777.862 259.997 723.373 297.911C682.566 326.465 644.783 338.842 612.74 317.008C538.981 266.571 516.629 8.57277 428.324 8.31782C341.333 8.12441 251.19 261.247 161.677 265.542C80.7319 269.395 69.4264 70.3369 6.24877 44.4472" stroke="url(#paint3_linear_9203_2449)" stroke-width="0.7376" stroke-miterlimit="10"/>
<path d="M1083.76 242.084C1043.22 133.719 1013.75 73.7102 910.347 148.616C848.686 193.301 786.067 257.681 732.499 294.257C692.541 321.601 655.462 333.023 623.732 311.533C550.67 261.655 526.245 12.4423 438.733 10.7769C353.062 9.13193 262.108 253.202 171.587 259.292C89.4788 264.804 75.9399 69.876 9.90418 50.5203" stroke="url(#paint4_linear_9203_2449)" stroke-width="0.7025" stroke-miterlimit="10"/>
<path d="M1089.6 239.796C1049.54 133.56 1018.79 77.0436 917.625 149.159C856.539 192.819 794.201 255.501 741.753 290.682C702.644 316.815 666.197 327.412 634.795 305.938C562.486 256.818 535.933 16.191 449.285 12.9868C365.064 9.96213 273.243 244.78 181.841 252.737C98.3664 259.981 82.5344 68.785 13.2975 56.5748" stroke="url(#paint5_linear_9203_2449)" stroke-width="0.6674" stroke-miterlimit="10"/>
<path d="M1095.38 237.308C1055.74 133.328 1023.77 80.176 924.848 149.502C864.282 191.935 802.48 253.064 750.953 286.906C712.748 312.029 676.949 321.472 645.732 300.269C574.119 251.709 545.495 19.8669 459.767 15.324C376.866 10.8478 284.434 236.557 191.824 246.365C106.884 255.415 88.6719 68.0157 16.2525 63.1751" stroke="url(#paint6_linear_9203_2449)" stroke-width="0.6323" stroke-miterlimit="10"/>
<path d="M1101.21 235.018C1062.06 133.166 1028.81 83.5072 932.052 150.171C872.063 191.579 810.668 251.082 760.262 283.529C722.905 307.441 687.811 315.93 656.777 294.999C585.989 247.069 555.093 24.0698 470.302 17.86C388.85 12.004 295.551 228.461 202.06 240.136C117.441 250.714 95.6122 75.45 23.5931 70.4966C22.3187 70.4087 21.0301 70.3575 19.7276 70.3422" stroke="url(#paint7_linear_9203_2449)" stroke-width="0.5971" stroke-miterlimit="10"/>
<path d="M1106.99 232.527C1068.39 133.004 1033.79 86.6377 939.276 150.511C879.735 190.821 818.876 248.77 769.462 279.751C733.082 302.524 698.436 309.916 667.787 289.2C597.696 241.829 564.728 27.6156 480.929 19.9388C400.926 12.7031 306.832 219.78 212.188 233.506C127.89 245.612 102.444 82.4837 30.8973 77.2892C28.1379 77.0918 25.3142 77.0484 22.429 77.1512" stroke="url(#paint8_linear_9203_2449)" stroke-width="0.562" stroke-miterlimit="10"/>
<path d="M1112.77 230.035C1074.59 132.769 1038.77 89.7674 946.427 150.979C887.406 190.063 826.955 246.387 778.662 275.972C743.186 297.735 709.189 303.972 678.852 283.6C609.513 236.989 574.417 31.3605 491.411 22.2733C412.729 13.586 317.896 211.482 222.371 227.076C138.321 240.838 109.404 89.5883 38.185 84.4091C34.0414 84.1083 29.7579 84.1164 25.3435 84.4114" stroke="url(#paint9_linear_9203_2449)" stroke-width="0.5269" stroke-miterlimit="10"/>
<path d="M1118.61 227.744C1080.92 132.605 1043.68 93.0252 953.707 151.518C895.262 189.577 835.22 244.274 787.919 272.393C753.292 292.945 719.999 298.229 689.918 278C621.405 232.019 584.036 35.2335 502.094 24.5511C424.861 14.484 329.233 202.999 232.556 220.645C148.827 235.936 116.292 96.8209 45.6023 91.6007C39.9836 91.18 34.1154 91.2666 28.0195 91.8134" stroke="url(#paint10_linear_9203_2449)" stroke-width="0.4918" stroke-miterlimit="10"/>
<path d="M1124.39 225.256C1087.11 132.374 1048.66 96.1584 960.929 151.862C903.004 188.694 843.425 241.966 797.117 268.617C763.467 288.031 730.749 292.289 700.853 272.332C633.036 226.911 593.596 38.9104 512.519 26.6892C436.662 15.3706 340.183 194.305 242.682 214.017C159.273 230.837 123.194 103.729 52.9042 98.3962C45.77 97.8554 38.2468 98.0414 30.3773 98.8733" stroke="url(#paint11_linear_9203_2449)" stroke-width="0.4566" stroke-miterlimit="10"/>
<path d="M1130.1 222.894C1093.31 132.14 1053.44 99.3458 968.008 152.459C910.531 188.194 851.489 239.911 806.173 265.096C773.299 283.428 741.358 286.603 711.646 266.918C644.782 222.199 603.27 42.9849 523.057 29.225C448.521 16.4549 351.375 186.08 252.722 207.844C169.705 226.064 130.01 111.092 60.0482 105.774C51.5391 105.112 42.4929 105.37 32.9795 106.434" stroke="url(#paint12_linear_9203_2449)" stroke-width="0.4215" stroke-miterlimit="10"/>
<path d="M1136.01 220.468C1099.63 131.972 1058.42 102.47 975.485 152.936C918.457 187.574 860.023 237.609 815.627 261.454C783.73 278.648 752.365 280.797 722.91 261.256C656.542 217.152 612.959 46.7245 533.61 31.4259C460.523 17.276 362.455 177.448 262.977 201.279C180.153 220.956 136.969 118.191 67.4799 112.632C57.4133 111.829 46.6158 112.172 35.1991 113.499" stroke="url(#paint13_linear_9203_2449)" stroke-width="0.3864" stroke-miterlimit="10"/>
<path d="M1141.72 218.11C1105.83 131.742 1063.33 105.734 982.563 153.538C926.055 186.95 868.085 235.559 824.811 258.009C793.89 274.064 763.102 275.187 733.959 255.99C668.416 212.517 622.561 50.9323 544.077 34.095C472.367 18.6936 373.575 169.356 273.017 195.111C190.514 216.316 143.786 125.558 74.6253 120.015C63.0993 119.074 50.6419 119.463 37.4152 120.98" stroke="url(#paint14_linear_9203_2449)" stroke-width="0.3513" stroke-miterlimit="10"/>
<path d="M1147.63 215.686C1112.16 131.576 1068.31 108.86 989.917 153.946C933.929 186.131 876.424 233.314 834.142 254.298C803.998 269.27 773.986 269.312 745.099 250.258C680.254 207.344 632.254 54.6741 554.835 36.2417C484.502 19.5889 384.86 160.67 283.405 188.62C201.167 211.153 150.879 132.731 82.2466 127.147C69.1441 126.056 54.8789 126.475 39.6794 128.164" stroke="url(#paint15_linear_9203_2449)" stroke-width="0.3161" stroke-miterlimit="10"/>
<path d="M1153.33 213.322C1118.28 131.468 1073.04 111.845 997.066 154.412C941.526 185.5 884.501 230.929 843.267 250.646C814.1 264.479 784.665 263.495 755.962 244.713C691.87 202.559 641.87 58.5466 565.187 38.5036C496.304 20.4712 395.739 152.099 293.332 182.044C211.414 206.106 157.582 139.691 89.3498 133.994C74.8094 132.773 58.8658 133.195 41.8225 134.991" stroke="url(#paint16_linear_9203_2449)" stroke-width="0.281" stroke-miterlimit="10"/>
<path d="M1159.11 210.826C1124.55 131.101 1077.89 114.899 1004.21 154.876C949.194 184.738 892.633 228.741 852.464 246.863C824.273 259.557 795.342 257.676 766.896 239.037C703.629 197.514 651.357 62.3445 575.667 40.8347C508.161 21.5507 406.817 143.469 303.314 175.666C221.661 201.056 164.34 146.848 96.4364 141.166C80.4358 139.798 62.781 140.171 43.8625 141.998" stroke="url(#paint17_linear_9203_2449)" stroke-width="0.2459" stroke-miterlimit="10"/>
<path d="M1164.95 208.53C1130.81 131.063 1082.87 118.025 1011.5 155.412C956.871 183.976 900.901 226.625 861.726 243.279C834.311 254.892 806.029 251.856 777.967 233.433C715.396 192.469 660.981 66.2142 586.227 43.0375C519.97 22.4303 417.903 134.839 313.576 169.103C232.188 195.821 171.307 153.949 103.876 148.026C86.2882 146.531 66.758 146.856 45.7845 148.706" stroke="url(#paint18_linear_9203_2449)" stroke-width="0.2108" stroke-miterlimit="10"/>
<path d="M1170.73 206.038C1137.21 130.77 1087.6 121.011 1018.65 155.879C964.469 183.346 909.165 224.512 870.853 239.628C844.416 250.102 816.709 246.04 788.96 227.961C727.142 187.756 670.583 70.4154 596.838 45.4436C531.958 23.585 429.112 126.285 323.689 162.8C242.494 190.975 178.196 161.181 111.222 155.346C92.1657 153.67 70.8875 153.844 48.0002 155.583" stroke="url(#paint19_linear_9203_2449)" stroke-width="0.1756" stroke-miterlimit="10"/>
<path d="M1176.44 203.68C1143.33 130.67 1092.32 124.003 1025.8 156.353C972.011 182.522 917.299 222.334 879.98 235.983C854.447 245.446 827.389 240.23 799.896 222.295C738.775 182.649 680.073 74.2232 607.192 47.7127C543.689 24.6026 439.992 117.721 333.745 156.303C252.814 185.806 185.028 168.22 118.382 162.4C97.8128 160.515 74.7136 160.484 49.8306 162.052" stroke="url(#paint20_linear_9203_2449)" stroke-width="0.1405" stroke-miterlimit="10"/>
<path d="M1182.35 201.263C1149.73 130.381 1097.38 127.007 1033.15 156.766C979.829 181.509 925.637 220.096 889.439 232.349C864.882 240.674 838.401 234.433 811.092 216.769C750.796 177.754 689.821 78.1707 617.878 49.9934C555.751 25.6318 451.148 108.969 343.932 149.875C263.266 180.706 191.992 175.327 125.746 169.394C103.595 167.336 78.5751 167.096 51.5889 168.467" stroke="url(#paint21_linear_9203_2449)" stroke-width="0.1054" stroke-miterlimit="10"/>
<path d="M1188.06 198.887C1155.86 130.262 1102.1 129.981 1040.23 157.35C987.3 180.795 933.7 218.027 898.495 228.814C874.843 236.128 849.01 228.733 821.885 211.341C762.286 172.885 699.224 82.4163 628.289 52.4439C567.54 26.8309 462.029 100.387 354.045 143.559C273.516 175.648 198.81 182.676 132.965 176.63C109.349 174.428 82.5498 173.939 53.6249 175.031" stroke="url(#paint22_linear_9203_2449)" stroke-width="0.070252" stroke-miterlimit="10"/>
<path d="M1193.97 196.479C1162.18 130.111 1106.9 132.851 1047.58 157.773C995.042 179.921 942.034 215.799 907.821 225.119C885.146 231.294 859.889 222.873 833.021 205.625C774.175 167.928 708.913 86.1736 638.842 54.6625C579.398 27.9263 473.181 91.645 364.1 137.069C283.764 170.614 205.641 189.72 140.197 183.561C115.101 181.193 86.4927 180.396 55.5989 181.14" stroke="url(#paint23_linear_9203_2449)" stroke-width="0.035126" stroke-miterlimit="10"/>
</g>
</g>
<defs>
<linearGradient id="paint0_linear_9203_2449" x1="370.849" y1="424.941" x2="650.048" y2="-73.2898" gradientUnits="userSpaceOnUse">
<stop stop-color="#03B589" stop-opacity="0.1"/>
<stop offset="1" stop-color="#087176"/>
</linearGradient>
<linearGradient id="paint1_linear_9203_2449" x1="377.817" y1="417.404" x2="653.005" y2="-73.668" gradientUnits="userSpaceOnUse">
<stop stop-color="#03B589" stop-opacity="0.1"/>
<stop offset="1" stop-color="#087176"/>
</linearGradient>
<linearGradient id="paint2_linear_9203_2449" x1="386.895" y1="411.102" x2="658.127" y2="-72.9113" gradientUnits="userSpaceOnUse">
<stop stop-color="#03B589" stop-opacity="0.1"/>
<stop offset="1" stop-color="#087176"/>
</linearGradient>
<linearGradient id="paint3_linear_9203_2449" x1="395.869" y1="404.835" x2="663.185" y2="-72.1903" gradientUnits="userSpaceOnUse">
<stop stop-color="#03B589" stop-opacity="0.1"/>
<stop offset="1" stop-color="#087176"/>
</linearGradient>
<linearGradient id="paint4_linear_9203_2449" x1="404.862" y1="399.013" x2="668.467" y2="-71.3881" gradientUnits="userSpaceOnUse">
<stop stop-color="#03B589" stop-opacity="0.1"/>
<stop offset="1" stop-color="#087176"/>
</linearGradient>
<linearGradient id="paint5_linear_9203_2449" x1="413.977" y1="392.886" x2="673.71" y2="-70.6058" gradientUnits="userSpaceOnUse">
<stop stop-color="#03B589" stop-opacity="0.1"/>
<stop offset="1" stop-color="#087176"/>
</linearGradient>
<linearGradient id="paint6_linear_9203_2449" x1="422.776" y1="387.055" x2="678.896" y2="-69.9902" gradientUnits="userSpaceOnUse">
<stop stop-color="#03B589" stop-opacity="0.1"/>
<stop offset="1" stop-color="#087176"/>
</linearGradient>
<linearGradient id="paint7_linear_9203_2449" x1="431.901" y1="381.536" x2="684.417" y2="-69.0772" gradientUnits="userSpaceOnUse">
<stop stop-color="#03B589" stop-opacity="0.1"/>
<stop offset="1" stop-color="#087176"/>
</linearGradient>
<linearGradient id="paint8_linear_9203_2449" x1="440.65" y1="375.673" x2="689.575" y2="-68.5326" gradientUnits="userSpaceOnUse">
<stop stop-color="#03B589" stop-opacity="0.1"/>
<stop offset="1" stop-color="#087176"/>
</linearGradient>
<linearGradient id="paint9_linear_9203_2449" x1="449.373" y1="370.268" x2="694.913" y2="-67.8946" gradientUnits="userSpaceOnUse">
<stop stop-color="#03B589" stop-opacity="0.1"/>
<stop offset="1" stop-color="#087176"/>
</linearGradient>
<linearGradient id="paint10_linear_9203_2449" x1="457.984" y1="365.075" x2="700.234" y2="-67.2175" gradientUnits="userSpaceOnUse">
<stop stop-color="#03B589" stop-opacity="0.1"/>
<stop offset="1" stop-color="#087176"/>
</linearGradient>
<linearGradient id="paint11_linear_9203_2449" x1="466.238" y1="359.91" x2="705.355" y2="-66.7906" gradientUnits="userSpaceOnUse">
<stop stop-color="#03B589" stop-opacity="0.1"/>
<stop offset="1" stop-color="#087176"/>
</linearGradient>
<linearGradient id="paint12_linear_9203_2449" x1="474.278" y1="355.596" x2="710.642" y2="-66.1919" gradientUnits="userSpaceOnUse">
<stop stop-color="#03B589" stop-opacity="0.1"/>
<stop offset="1" stop-color="#087176"/>
</linearGradient>
<linearGradient id="paint13_linear_9203_2449" x1="476.669" y1="360.892" x2="715.803" y2="-65.8395" gradientUnits="userSpaceOnUse">
<stop stop-color="#03B589" stop-opacity="0.1"/>
<stop offset="1" stop-color="#087176"/>
</linearGradient>
<linearGradient id="paint14_linear_9203_2449" x1="478.111" y1="367.939" x2="720.955" y2="-65.4139" gradientUnits="userSpaceOnUse">
<stop stop-color="#03B589" stop-opacity="0.1"/>
<stop offset="1" stop-color="#087176"/>
</linearGradient>
<linearGradient id="paint15_linear_9203_2449" x1="479.71" y1="374.75" x2="726.207" y2="-65.1212" gradientUnits="userSpaceOnUse">
<stop stop-color="#03B589" stop-opacity="0.1"/>
<stop offset="1" stop-color="#087176"/>
</linearGradient>
<linearGradient id="paint16_linear_9203_2449" x1="481.244" y1="381.236" x2="731.246" y2="-64.8909" gradientUnits="userSpaceOnUse">
<stop stop-color="#03B589" stop-opacity="0.1"/>
<stop offset="1" stop-color="#087176"/>
</linearGradient>
<linearGradient id="paint17_linear_9203_2449" x1="482.675" y1="387.901" x2="736.387" y2="-64.8452" gradientUnits="userSpaceOnUse">
<stop stop-color="#03B589" stop-opacity="0.1"/>
<stop offset="1" stop-color="#087176"/>
</linearGradient>
<linearGradient id="paint18_linear_9203_2449" x1="484.165" y1="394.367" x2="741.447" y2="-64.7529" gradientUnits="userSpaceOnUse">
<stop stop-color="#03B589" stop-opacity="0.1"/>
<stop offset="1" stop-color="#087176"/>
</linearGradient>
<linearGradient id="paint19_linear_9203_2449" x1="485.734" y1="400.881" x2="746.699" y2="-64.8092" gradientUnits="userSpaceOnUse">
<stop stop-color="#03B589" stop-opacity="0.1"/>
<stop offset="1" stop-color="#087176"/>
</linearGradient>
<linearGradient id="paint20_linear_9203_2449" x1="487.154" y1="407.12" x2="751.677" y2="-64.9213" gradientUnits="userSpaceOnUse">
<stop stop-color="#03B589" stop-opacity="0.1"/>
<stop offset="1" stop-color="#087176"/>
</linearGradient>
<linearGradient id="paint21_linear_9203_2449" x1="488.604" y1="413.363" x2="756.827" y2="-65.2802" gradientUnits="userSpaceOnUse">
<stop stop-color="#03B589" stop-opacity="0.1"/>
<stop offset="1" stop-color="#087176"/>
</linearGradient>
<linearGradient id="paint22_linear_9203_2449" x1="490.127" y1="419.638" x2="761.988" y2="-65.4979" gradientUnits="userSpaceOnUse">
<stop stop-color="#03B589" stop-opacity="0.1"/>
<stop offset="1" stop-color="#087176"/>
</linearGradient>
<linearGradient id="paint23_linear_9203_2449" x1="491.777" y1="425.566" x2="767.209" y2="-65.942" gradientUnits="userSpaceOnUse">
<stop stop-color="#03B589" stop-opacity="0.1"/>
<stop offset="1" stop-color="#087176"/>
</linearGradient>
<clipPath id="clip0_9203_2449">
<rect width="603" height="344" fill="white"/>
</clipPath>
</defs>
</svg>
