<svg width="28" height="128" viewBox="0 0 28 128" fill="none" xmlns="http://www.w3.org/2000/svg">
<circle cx="4" cy="4" r="4" fill="url(#paint0_linear_9203_2517)"/>
<circle cx="4" cy="24" r="4" fill="url(#paint1_linear_9203_2517)"/>
<circle cx="4" cy="44" r="4" fill="url(#paint2_linear_9203_2517)"/>
<circle cx="4" cy="64" r="4" fill="url(#paint3_linear_9203_2517)"/>
<circle cx="4" cy="84" r="4" fill="url(#paint4_linear_9203_2517)"/>
<circle cx="4" cy="104" r="4" fill="url(#paint5_linear_9203_2517)"/>
<circle cx="4" cy="124" r="4" fill="url(#paint6_linear_9203_2517)"/>
<circle cx="24" cy="4" r="4" fill="url(#paint7_linear_9203_2517)"/>
<circle cx="24" cy="24" r="4" fill="url(#paint8_linear_9203_2517)"/>
<circle cx="24" cy="44" r="4" fill="url(#paint9_linear_9203_2517)"/>
<circle cx="24" cy="64" r="4" fill="url(#paint10_linear_9203_2517)"/>
<circle cx="24" cy="84" r="4" fill="url(#paint11_linear_9203_2517)"/>
<defs>
<linearGradient id="paint0_linear_9203_2517" x1="4" y1="0" x2="4" y2="8" gradientUnits="userSpaceOnUse">
<stop stop-color="#087076"/>
<stop offset="1" stop-color="#03B58A"/>
</linearGradient>
<linearGradient id="paint1_linear_9203_2517" x1="4" y1="20" x2="4" y2="28" gradientUnits="userSpaceOnUse">
<stop stop-color="#087076"/>
<stop offset="1" stop-color="#03B58A"/>
</linearGradient>
<linearGradient id="paint2_linear_9203_2517" x1="4" y1="40" x2="4" y2="48" gradientUnits="userSpaceOnUse">
<stop stop-color="#087076"/>
<stop offset="1" stop-color="#03B58A"/>
</linearGradient>
<linearGradient id="paint3_linear_9203_2517" x1="4" y1="60" x2="4" y2="68" gradientUnits="userSpaceOnUse">
<stop stop-color="#087076"/>
<stop offset="1" stop-color="#03B58A"/>
</linearGradient>
<linearGradient id="paint4_linear_9203_2517" x1="4" y1="80" x2="4" y2="88" gradientUnits="userSpaceOnUse">
<stop stop-color="#087076"/>
<stop offset="1" stop-color="#03B58A"/>
</linearGradient>
<linearGradient id="paint5_linear_9203_2517" x1="4" y1="100" x2="4" y2="108" gradientUnits="userSpaceOnUse">
<stop stop-color="#087076"/>
<stop offset="1" stop-color="#03B58A"/>
</linearGradient>
<linearGradient id="paint6_linear_9203_2517" x1="4" y1="120" x2="4" y2="128" gradientUnits="userSpaceOnUse">
<stop stop-color="#087076"/>
<stop offset="1" stop-color="#03B58A"/>
</linearGradient>
<linearGradient id="paint7_linear_9203_2517" x1="24" y1="0" x2="24" y2="8" gradientUnits="userSpaceOnUse">
<stop stop-color="#087076"/>
<stop offset="1" stop-color="#03B58A"/>
</linearGradient>
<linearGradient id="paint8_linear_9203_2517" x1="24" y1="20" x2="24" y2="28" gradientUnits="userSpaceOnUse">
<stop stop-color="#087076"/>
<stop offset="1" stop-color="#03B58A"/>
</linearGradient>
<linearGradient id="paint9_linear_9203_2517" x1="24" y1="40" x2="24" y2="48" gradientUnits="userSpaceOnUse">
<stop stop-color="#087076"/>
<stop offset="1" stop-color="#03B58A"/>
</linearGradient>
<linearGradient id="paint10_linear_9203_2517" x1="24" y1="60" x2="24" y2="68" gradientUnits="userSpaceOnUse">
<stop stop-color="#087076"/>
<stop offset="1" stop-color="#03B58A"/>
</linearGradient>
<linearGradient id="paint11_linear_9203_2517" x1="24" y1="80" x2="24" y2="88" gradientUnits="userSpaceOnUse">
<stop stop-color="#087076"/>
<stop offset="1" stop-color="#03B58A"/>
</linearGradient>
</defs>
</svg>
