<svg width="124" height="60" viewBox="0 0 124 60" fill="none" xmlns="http://www.w3.org/2000/svg">
<g clip-path="url(#clip0_9403_467)">
<g clip-path="url(#clip1_9403_467)">
<path d="M51.2799 27.133C52.0544 26.9666 52.9491 26.5686 53.0793 25.8325C54.9891 27.0875 57.5556 27.4547 59.8972 26.8019C62.2389 26.1491 64.2897 24.4786 65.3328 22.3971C66.3403 22.5761 67.4729 22.4361 68.3173 21.8143C69.1617 21.1925 69.6079 20.0479 69.1557 19.1929C68.7036 18.338 67.3084 18.0592 66.5523 18.7674C67.7942 18.5344 67.9208 16.6644 66.9172 16.0322C65.9137 15.3999 64.488 15.7072 63.3248 16.2014C62.2197 13.4983 58.0764 12.5351 55.4802 14.3771C56.4854 12.433 54.8725 10.0937 52.7002 9.67718C50.5322 9.27111 48.1865 10.3772 46.5904 11.9495C46.9018 10.835 46.2294 9.6662 45.1835 9.16086C44.1377 8.65552 42.8165 8.72529 41.6739 9.13796C39.5077 9.9274 37.0481 12.703 37.8124 14.8601C37.8994 14.6785 38.0414 14.4014 38.1271 14.1837C34.474 12.9126 37.3641 21.9869 38.8609 23.311C41.95 26.0306 46.8806 28.1163 51.2799 27.133Z" fill="white"/>
<path d="M44.169 54.4155C44.6051 50.6221 48.6102 47.7033 52.2252 48.5423C56.7666 44.2689 70.215 39.7552 87.677 55.8875C93.2608 55.9837 104.124 58.4522 102.905 67.5562H73.8004C67.8787 71.1723 61.7389 74.682 54.9795 76.0528C49.0119 77.2582 42.8722 76.7264 36.8013 76.9155C28.9746 77.1518 21.2282 78.6054 13.4015 78.9363C5.58621 79.2671 -2.55037 78.3927 -9.33276 74.3512C-17.8136 69.2934 -23.1845 59.6505 -24.5845 49.6649C-25.9846 39.6794 -23.7238 29.4102 -19.6383 20.24C-18.9498 18.7038 -18.1579 17.1203 -16.8152 16.1394C-15.4495 15.135 -13.6707 14.9105 -11.9952 15.0286C-6.40697 15.4429 -1.31942 19.8137 0.119087 25.3794C0.18572 24.738 1.15842 24.2093 1.92533 24.1515C5.9305 23.8325 10.039 25.3923 12.8965 28.2994C15.7426 31.2064 17.3033 35.4252 17.0394 39.5494C19.6904 38.6158 22.8348 39.4549 24.7055 41.5938C26.5761 43.7327 27.0695 47.0415 25.899 49.6531C27.1154 48.3414 29.1697 47.9514 30.7534 48.7432C32.3371 49.535 33.324 51.4257 33.083 53.2219C34.1962 51.9929 35.4586 50.6812 37.0882 50.5158C38.7178 50.3504 40.4966 52.1466 39.7048 53.6237C41.1163 52.7729 43.1132 53.1274 44.169 54.4155Z" fill="#FFEFC9"/>
<path d="M63.0928 55.4632C65.5893 55.4188 68.7907 54.4418 70.1124 56.5881C79.9857 58.5321 94.0669 63.5094 71.4047 67.867C66.0446 69.9836 60.6404 72.1151 54.9866 73.314C49.0391 74.5573 42.9301 74.7498 36.8651 74.7646C29.8308 74.7794 22.7966 74.5574 15.8065 73.7285C10.7548 73.1216 5.60026 72.1447 1.29749 69.4212C-2.66751 66.9049 -5.61924 63.1008 -8.38006 59.2968C-11.9192 54.4271 -15.3555 49.3353 -17.0296 43.5478C-18.7038 37.7456 -18.366 31.07 -14.7975 26.2298C-13.2996 24.1872 -11.3171 22.5738 -9.30523 21.0493C-6.19196 18.681 -2.66751 16.3867 1.22407 16.4607C5.13033 16.5347 9.13939 20.1167 8.21422 23.9356C14.0296 22.6034 20.3736 27.7396 20.3589 33.7491C22.6792 34.1339 25.0582 34.6668 26.9819 36.0434C28.9057 37.4199 30.2714 39.8326 29.7868 42.1565C33.0029 42.2157 35.7784 45.5164 35.2937 48.7284C38.2455 47.4999 42.0489 49.2317 43.0769 52.2808C46.4545 51.1559 50.4929 52.6361 52.358 55.6704C55.0307 53.0653 59.3775 55.5224 63.0928 55.4632Z" fill="#FFD981"/>
<path d="M-15.8379 53.9209L-12.7406 32.5741L-12.5371 31.1593C-0.385405 29.2804 11.4611 37.5316 18.187 45.2056C21.0695 48.4993 23.0138 51.6912 23.6355 53.9209C25.7154 61.3799 -15.8379 53.9209 -15.8379 53.9209Z" fill="#F78334"/>
<path opacity="0.4" d="M18.2002 45.204C17.5785 44.6267 17.002 43.9815 16.4029 43.393C13.9047 40.8916 10.7396 39.058 7.3258 38.1412C7.57449 38.0393 7.55188 37.6092 7.30319 37.53C4.00244 36.3641 0.532131 35.6963 -2.97209 35.5832C-2.40689 35.5379 -2.12429 34.655 -2.47472 34.157C-2.83644 33.6137 -3.54859 33.4439 -4.19292 33.3194C-6.99629 32.7648 -9.8901 32.3121 -12.75 32.5837L-12.5465 31.1689C-0.372185 29.2674 11.4743 37.53 18.2002 45.204Z" fill="white"/>
<path d="M44.6675 43.5189C44.6267 44.4317 43.7694 44.5952 43.4021 45.1811C43.2116 45.4945 43.1435 45.9441 42.9802 46.3528C42.885 46.598 42.7353 46.816 42.5176 46.9932C42.0414 47.361 41.3338 47.4019 40.8167 47.0885L40.7623 47.0613C40.7623 47.0749 40.7623 47.0749 40.7623 47.0885C40.6399 47.9469 40.0003 48.7235 39.1839 49.0232C38.3539 49.3229 37.3742 49.1322 36.7211 48.5327C36.1768 49.2412 35.0066 49.2003 34.3263 48.6145C33.6459 48.0286 33.4146 47.0749 33.4554 46.1757C32.571 46.4482 31.5913 46.4073 30.7204 46.0667C30.353 46.6798 29.5775 47.0204 28.8835 46.8705C28.4481 46.7752 28.0671 46.5027 27.8222 46.1348C27.6725 45.9168 27.5636 45.6579 27.5364 45.3855C26.788 46.0394 25.4818 45.5898 25.0736 44.677C24.6654 43.7778 25.0055 42.6742 25.6587 41.9248C26.2982 41.1755 27.1962 40.6986 28.0807 40.2354C30.4755 38.9956 32.9792 37.783 35.6733 37.6604C37.0749 37.6059 38.5444 37.9192 39.769 38.6004C41.1433 39.377 41.6468 40.685 42.7897 41.6387C43.6334 42.3199 44.7219 42.2654 44.6675 43.5189Z" fill="#E06020"/>
<path d="M44.6674 43.5189C44.6266 44.4317 43.7694 44.5952 43.402 45.1811C43.2115 45.4945 43.1435 45.9441 42.9802 46.3528C42.7489 46.3392 42.5584 46.3255 42.3407 46.4209C42.0549 46.5435 41.8236 46.925 41.4834 47.0613C41.4018 47.1021 41.1296 47.1021 40.8167 47.0885C40.8031 47.0885 40.7759 47.0885 40.7623 47.0885C40.1227 47.0613 39.3199 46.9659 39.4152 46.8569C39.0342 47.2656 38.5715 47.6471 38.0137 47.6744C37.4558 47.7016 36.8571 47.252 36.9115 46.707C36.4897 46.8569 35.9862 46.8705 35.6188 46.6117C35.2379 46.3664 35.0474 45.8214 35.2787 45.44C34.9521 45.7806 34.4078 45.9032 33.9724 45.7261C33.537 45.5489 33.224 45.0857 33.2104 44.6225C32.8294 45.3582 31.8089 45.6579 31.0741 45.2628C30.9245 45.8351 30.1353 46.1076 29.659 45.7533C29.5094 45.6443 29.3733 45.4672 29.1828 45.4536C29.0739 45.44 28.9515 45.4808 28.8562 45.5353C28.4888 45.6988 28.1487 45.9168 27.8085 46.1348C27.6588 45.9168 27.55 45.6579 27.5227 45.3855C26.7744 46.0394 25.4681 45.5898 25.0599 44.677C24.6517 43.7778 24.9919 42.6742 25.645 41.9248C26.2845 41.1755 27.1826 40.6986 28.067 40.2354C30.4618 38.9956 32.9655 37.783 35.6597 37.6604C37.0612 37.6059 38.5307 37.9192 39.7553 38.6004C41.1296 39.377 41.6331 40.685 42.7761 41.6387C43.6333 42.3199 44.7219 42.2654 44.6674 43.5189Z" fill="#EF7E20"/>
<path d="M33.5677 49.9518C33.3228 47.731 29.3359 43.4938 29.3359 43.4938L30.0435 42.7853L31.4586 44.829V42.2676H32.1526L32.0845 45.156C32.0845 45.156 34.8059 48.4259 34.8059 48.7528C34.8059 49.0798 33.5677 49.9518 33.5677 49.9518Z" fill="#543914"/>
<path d="M35.1992 47.1308C36.3286 46.3815 38.1791 42.4031 38.1791 42.4031L38.7098 42.7301L36.9545 46.2452C36.9545 46.2452 39.3085 44.1879 39.8392 42.0625L40.3426 42.662C40.3426 42.662 37.8662 47.5396 35.4305 49.4879L35.1992 47.1308Z" fill="#543914"/>
<path d="M30 59.5C34.3134 49.8675 33.2252 41.8555 33.2252 41.8555H34.0144L34.9805 44.7575L35.4431 41.8555H35.865C35.865 41.8555 35.7561 56.6517 35.865 60.2077C35.9738 63.7637 30 59.5 30 59.5Z" fill="#543914"/>
<path d="M46.997 37.2793C46.9561 37.9332 46.6568 38.5463 46.0581 38.7916C46.235 39.4456 46.4255 40.1404 46.235 40.7944C46.0445 41.4484 45.3505 42.007 44.711 41.7754C45.0784 42.4975 44.9151 43.4375 44.3164 43.9962C43.7313 44.5411 42.7652 44.6365 42.0849 44.2141C41.8399 44.909 41.1188 45.3995 40.384 45.3586C39.6492 45.3314 38.9689 44.7728 38.792 44.0643C37.7851 45.3314 35.3903 44.9226 34.8596 43.3967C34.3289 44.5139 32.6009 44.8136 31.7164 43.9417C31.2266 45.0589 29.5121 45.345 28.6821 44.4458C28.2467 46.0535 26.5594 46.0807 25.5525 45.1815C25.1171 44.7864 23.4978 42.9607 24.4912 42.7154C23.9197 42.6746 23.389 42.225 23.4026 41.5982C23.4162 40.8761 24.2734 40.3039 24.9538 40.5764C24.0285 40.154 23.5115 38.996 23.7972 38.0286C23.9061 37.6471 24.1374 37.3201 24.4231 37.0613C24.8858 36.6525 25.5253 36.4209 26.1376 36.5027C25.3348 36.0122 24.8994 34.9767 25.0899 34.0639C25.2804 33.1374 26.0968 32.3744 27.022 32.2518C26.8724 30.9575 27.403 29.595 28.3827 28.7231C29.3624 27.8511 30.7775 27.5105 32.043 27.8102C32.805 27.1971 33.7166 26.6658 34.6827 26.7611C35.6488 26.8565 36.5605 27.8375 36.2339 28.7639C37.2544 28.5732 38.3294 28.3961 39.3091 28.7639C40.2752 29.1318 41.0235 30.2899 40.5881 31.23C41.4181 30.8212 42.5067 30.9575 43.2006 31.5706C43.8946 32.1837 44.1803 33.2328 43.8946 34.1184C44.9559 34.4862 46.0445 34.9767 46.6568 35.9168C46.9017 36.3119 47.0242 36.8024 46.997 37.2793Z" fill="#FC7E39"/>
<path opacity="0.4" d="M46.0425 38.7889C46.2193 39.4429 46.4098 40.1377 46.2193 40.7917C46.0288 41.4457 45.3349 42.0043 44.6954 41.7727C45.0628 42.4948 44.8995 43.4349 44.3008 43.9935C43.7157 44.5385 42.7496 44.6338 42.0692 44.2115C41.8243 44.9063 41.1032 45.3968 40.3684 45.3559C39.6336 45.3287 38.9533 44.7701 38.7764 44.0616C37.7695 45.3287 35.3747 44.9199 34.844 43.394C34.3133 44.5112 32.5852 44.8109 31.7008 43.939C31.2109 45.0562 29.4965 45.3423 28.6664 44.4431C28.231 46.0508 26.5438 46.078 25.5369 45.1788C25.1014 44.7837 23.4822 42.958 24.4755 42.7128C23.904 42.6719 23.3734 42.2223 23.387 41.5956C23.4006 40.8735 24.2578 40.3012 24.9382 40.5737C24.0129 40.1514 23.4958 38.9933 23.7816 38.0259C23.8904 37.6444 24.1217 37.3175 24.4075 37.0586C24.4347 37.1403 24.4347 37.2357 24.4211 37.3311C24.3667 37.6989 24.0401 37.9714 23.904 38.3257C23.6591 39.0069 24.2442 39.7426 24.9382 39.9334C25.6321 40.1241 26.3669 39.9334 27.0472 39.729C27.1969 40.8326 28.4079 41.5411 29.5237 41.5002C30.6395 41.4729 31.6464 40.9007 32.6124 40.3421C34.014 41.4593 36.3543 41.0778 37.3477 39.5791C38.4362 39.8516 39.5656 40.0832 40.6813 39.9197C41.7971 39.7562 42.8993 39.1295 43.3619 38.1077C44.0967 38.5982 45.1036 38.6799 45.9064 38.2984C46.4643 38.0396 46.7364 37.6444 46.9813 37.263C46.9541 37.9306 46.6412 38.5437 46.0425 38.7889Z" fill="#FFAA2E"/>
<path d="M35 60H-11V38.3713C8.09456 35.172 28.4467 53.5564 33.6963 58.6933C34.55 59.5156 35 60 35 60Z" fill="#FFC580"/>
<path opacity="0.4" d="M33.5376 58.6166C33.4584 58.6166 33.368 58.628 33.2889 58.628C30.3612 58.7638 27.3204 57.8583 24.7318 56.534C23.5449 55.9228 22.3127 55.0739 21.9849 53.7723C21.8945 53.4214 21.8719 53.0479 21.7249 52.7197C21.4763 52.1764 20.9111 51.8481 20.3798 51.5538C19.6337 51.1464 18.8877 50.7389 18.1416 50.3201C17.8477 50.1617 17.5312 49.9806 17.3729 49.6863C17.2034 49.392 17.2712 48.9393 17.5877 48.8148C16.0051 48.1017 14.4339 47.3773 12.8514 46.6642C12.0601 46.302 11.2575 45.9398 10.4549 45.6116C8.34108 44.7514 6.14811 44.1062 3.90993 43.6988C3.63864 43.6535 3.34474 43.5969 3.14126 43.4045C2.93779 43.2121 2.88127 42.8385 3.09605 42.6688C1.64914 42.2839 0.202238 41.8991 -1.25597 41.5143C-2.86113 41.0842 -4.4889 40.6654 -6.13927 40.7786C-7.22445 40.8578 -8.27572 41.1747 -9.3609 41.3219C-9.6548 41.3671 -9.9487 41.3898 -10.2539 41.3898V38.1979C-6.46709 37.5414 -2.62375 37.7905 1.12916 38.628C15.2591 41.7746 28.2247 53.3988 32.9385 58.0281C33.1532 58.2318 33.3567 58.4355 33.5376 58.6166Z" fill="white"/>
<path d="M40.2863 19.5786C40.0439 22.2484 36.7558 24.1162 34.3424 22.9659C33.963 25.1398 31.0859 26.4166 29.2311 25.2453C28.5987 26.195 27.9348 27.1658 26.9336 27.7146C25.9429 28.2633 24.5202 28.2105 23.8457 27.2925C22.4124 28.2844 20.3995 28.3372 18.9135 27.4296C17.4275 26.5221 16.5528 24.6965 16.7847 22.9765C14.7296 22.9765 12.5902 22.0373 11.589 20.2328C10.5878 18.4389 11.1042 15.8113 12.9274 14.8722C11.1674 14.4817 10.3665 12.2024 10.9672 10.5034C11.5574 8.79392 13.0961 7.60148 14.6347 6.67286C21.8117 2.32523 31.0121 1.51269 38.8425 4.52015C39.243 4.67844 39.654 4.84728 39.9385 5.17441C40.3285 5.62817 40.3812 6.26132 40.5498 6.83115C41.1505 8.84668 43.2899 9.90193 45.2712 9.64867C44.5756 11.9069 46.0616 13.3209 45.8614 15.5159C45.5979 18.2279 42.9527 20.1801 40.2863 19.5786Z" fill="#EF7E20"/>
<path d="M38.3466 19.0287C37.8724 19.6513 36.9134 19.9679 36.281 19.5036C35.8911 21.1076 33.836 22.0467 32.3711 21.2975C31.7704 23.1969 29.083 24.0411 27.5127 22.8171C26.5853 23.5241 25.4998 24.0095 24.3616 24.2311C24.1613 24.2733 23.9506 24.305 23.7503 24.2416C23.3393 24.1256 23.118 23.6613 23.1496 23.2392C23.1707 22.8171 23.3815 22.4266 23.5817 22.0573C22.7913 22.1945 21.9798 22.3316 21.1999 22.1417C20.42 21.9518 19.6823 21.3608 19.5875 20.5588C18.8814 21.5085 17.5956 21.9729 16.4574 21.6985C15.6881 21.5191 14.9293 20.6116 15.4457 20.0101C14.5604 20.7804 13.2115 21.3819 12.2735 20.6749C11.9257 20.4111 11.7149 20.0206 11.5569 19.6196C10.9983 18.174 11.1564 16.4856 11.9468 15.1559C12.0943 15.4092 11.736 15.7152 11.462 15.6308C11.1775 15.5464 11.0194 15.2615 10.9245 14.9871C10.4819 13.7419 10.7664 12.3173 11.4725 11.1987C12.1787 10.0802 13.2431 9.23598 14.3918 8.58173C16.2677 7.50537 18.3966 6.88277 20.557 6.77725C21.1894 6.74559 21.8428 6.75614 22.4435 6.53454C22.9072 6.35515 23.3182 6.04912 23.7292 5.78531C26.9541 3.67481 31.3805 3.55873 34.7107 5.51095C35.3009 5.85918 35.87 6.26017 36.5234 6.46067C38.2623 6.97774 39.5586 6.71393 40.7706 8.32846C41.5715 9.38372 42.3514 10.7555 42.7624 12.0218C43.5634 14.4384 41.7718 17.2664 39.0106 16.8338C38.8841 17.583 38.8209 18.3956 38.3466 19.0287Z" fill="#EF7E20"/>
<path d="M33.8045 18.3111C32.5187 19.8623 29.7048 19.6618 28.651 17.9418C27.2282 18.9337 25.268 19.1131 23.6977 18.3744C23.234 18.1634 22.7492 17.6885 22.96 17.2242C22.2117 17.9523 21.0314 18.195 20.0513 17.8468C19.0711 17.4986 18.3229 16.5594 18.1964 15.5253C17.7854 16.2745 16.7315 16.5066 15.9411 16.169C15.1507 15.8313 14.6237 15.0609 14.3708 14.2378C13.7596 12.254 14.6343 10.0274 16.1203 8.58171C17.6062 7.13601 19.6192 6.34457 21.6321 5.8275C23.6872 5.29987 25.8055 5.0044 27.9238 4.95164C29.2833 4.91998 30.6639 4.99385 31.9285 5.47927C33.1405 5.93302 34.1944 6.73502 35.1324 7.62143C37.0926 9.47867 38.0622 11.7791 37.7355 14.5017C37.6301 15.3986 37.2612 16.3695 36.7343 17.1081C36.3654 17.6252 35.9965 18.0156 35.3853 18.2373C35.1851 18.3217 33.815 18.3006 33.8045 18.3111Z" fill="#EF7E20"/>
<path d="M4.45451 25.7828C3.34793 25.1075 2.53644 23.4085 3.55871 22.6171C1.4404 22.1211 -0.309052 20.2744 -0.69899 18.1323C-1.08893 15.9901 -0.0982745 13.6475 1.72495 12.4445C1.17693 12.5078 0.713217 11.9485 0.69214 11.3998C0.671062 10.851 0.976689 10.3445 1.32447 9.91187C2.89476 8.00187 5.43463 7.16822 7.89018 6.8622C9.18646 6.70391 10.9675 7.0627 11.0097 8.37121C12.3376 6.39789 15.5203 6.31347 17.2592 7.928C18.9981 9.54253 19.3143 12.3284 18.408 14.5233C19.9888 13.9324 21.8647 15.3253 22.0123 17.0137C22.1703 18.7443 20.8635 20.19 19.3459 20.8021C23.0029 22.5221 18.6293 27.0386 16.4477 27.5873C14.6561 28.0305 12.5167 28.1783 10.7989 27.4607C9.40778 26.8698 9.41831 26.7431 7.95341 26.5954C6.67821 26.4477 5.62433 26.5004 4.45451 25.7828Z" fill="#FD6511"/>
<path d="M17.4162 24.3273C16.415 24.2323 15.4981 23.5253 15.1503 22.5756C14.0859 23.5992 12.4629 24.0002 11.0402 23.5992C10.5448 23.462 10.0179 23.1243 10.0073 22.6178C9.02723 23.1982 7.78364 23.4304 6.72976 22.9872C5.67587 22.5439 4.93815 21.3304 5.23324 20.2224C3.52594 20.7395 1.70272 19.0616 1.65003 17.2677C1.59733 15.4738 2.862 13.8592 4.41121 12.9728C5.96042 12.0759 7.76257 11.7698 9.52256 11.4216C11.0823 11.1156 12.6526 10.7885 14.244 10.8729C15.8353 10.9573 17.4583 11.5271 18.4806 12.7512C18.9021 13.2577 19.2078 13.8592 19.5872 14.408C20.3143 15.4632 21.3366 16.3602 21.6528 17.5948C22.1481 19.4732 20.8834 20.7395 20.1246 22.2801C19.5345 23.4726 19.0708 24.4856 17.4162 24.3273Z" fill="#EF7E20"/>
<path d="M34.4265 13.4263C34.4265 13.4263 31.8761 17.2041 28.725 20.7286C26.7647 22.9235 24.5832 25.0129 22.644 26.0365C22.644 26.0365 19.4508 52.4917 17.3746 60.8387L5.56055 61.1869C5.56055 61.1869 15.3617 43.4271 17.5854 28.7063C17.5854 28.7063 15.5303 26.4375 13.3593 22.5226C12.2633 20.5387 11.1251 18.1433 10.2082 15.3996L11.3042 14.5237C11.3042 14.5237 13.2855 18.6076 15.3511 21.6678C16.247 22.9974 17.1533 24.1371 17.9332 24.6647L18.5655 21.7944L18.5866 21.6784C18.5866 21.6784 15.994 13.268 15.8676 12.4871L17.8278 11.4952L20.473 19.7472L21.2213 11.0098L23.9087 11.2419C23.9087 11.2419 23.8139 16.1277 23.1604 21.1507C23.0867 21.6889 23.0129 22.2376 22.9286 22.7758C22.9286 22.7758 23.8771 22.0793 25.1523 20.9819C27.3233 19.1246 30.4639 16.1277 31.6653 13.4368H34.4265V13.4263Z" fill="#543914"/>
<path opacity="0.52" d="M11.3031 14.5234C11.3031 14.5234 13.2844 18.6073 15.35 21.6675C14.7914 22.1318 14.0853 22.4273 13.3581 22.5222C12.2621 20.5384 11.1239 18.1429 10.207 15.3993L11.3031 14.5234Z" fill="#543914"/>
<path opacity="0.52" d="M21.2209 10.998L23.9083 11.2302C23.9083 11.2302 23.8135 16.116 23.1601 21.139C22.1589 21.5822 20.8731 21.4556 20.0827 20.6747C19.7455 21.234 19.1869 21.6139 18.5651 21.7933L18.5862 21.6772C18.5862 21.6772 15.9937 13.2668 15.8672 12.486L17.8274 11.494L20.4727 19.7461L21.2209 10.998Z" fill="#543914"/>
<path opacity="0.52" d="M34.4265 13.4238C34.4265 13.4238 31.8761 17.2016 28.725 20.7262C28.4721 20.589 28.2086 20.4201 27.9557 20.2302C27.2601 20.99 26.1008 21.3171 25.1523 20.9689C27.3233 19.1116 30.4639 16.1147 31.6654 13.4238H34.4265Z" fill="#543914"/>
<path d="M50.6984 3.46395C50.5403 4.18152 50.3717 4.88854 50.2136 5.60611C50.1715 5.7855 50.1293 5.95434 50.0977 6.13373C49.8553 7.19954 49.5918 8.30755 48.9384 9.18341C48.285 10.0593 47.1258 10.6608 46.0824 10.3231C46.2405 12.5391 43.4793 14.3647 41.498 13.3622C40.6338 16.4646 36.3234 17.9631 33.7309 16.0531C32.8878 17.2666 30.9275 16.8445 29.7893 15.8948C28.493 14.8184 27.6289 13.2356 27.4075 11.5683C26.3747 12.6974 24.5937 13.0667 23.2025 12.4441C22.3805 14.8712 19.8933 16.6229 17.3429 16.5702C15.604 18.649 12.1367 18.955 10.05 17.2139C8.50083 18.6596 6.43521 19.7465 4.32744 19.5038C2.45152 19.2822 1.79811 18.1214 0.78638 16.8023C0.154049 15.9792 -1.30031 15.0928 -1.69025 14.1853C-2.13288 13.1512 -1.60594 11.7899 -0.573133 11.3361C-1.46894 10.7874 -2.05911 9.85877 -2.60713 8.96181C-3.70317 7.19954 -4.83083 5.31064 -5.15754 3.30566C-5.26293 2.69362 -5.284 2.07102 -5.21023 1.43787C-4.89407 -1.3691 -2.36474 -3.75396 0.449136 -3.92281C1.11308 -6.10717 2.99954 -7.86944 5.2127 -8.38652C7.4364 -8.90359 9.9025 -8.14381 11.4517 -6.46596C13.9705 -9.63171 18.7341 -10.7714 22.4121 -9.09353C23.6663 -8.5237 24.9098 -7.39458 24.7623 -6.02275C27.808 -7.77447 31.4755 -8.38652 34.9323 -7.73226C37.5459 -7.23629 40.3176 -5.63231 40.7181 -3.00474C42.7732 -3.32131 44.8915 -3.63789 46.9044 -3.11026C48.9174 -2.58264 50.7933 -0.989208 50.983 1.07908C51.0568 1.90218 50.8776 2.69362 50.6984 3.46395Z" fill="#FFAA2E"/>
<path opacity="0.4" d="M50.213 5.60555C50.1708 5.78495 50.1287 5.95379 50.097 6.13318C49.8547 7.19898 49.5912 8.307 48.9378 9.18285C48.2844 10.0587 47.1251 10.6602 46.0817 10.3225C46.2398 12.5386 43.4786 14.3641 41.4973 13.3616C40.6331 16.4641 36.3228 17.9625 33.7302 16.0525C32.8871 17.2661 30.9269 16.844 29.7887 15.8942C28.4924 14.8179 27.6282 13.235 27.4069 11.5677C26.3741 12.6968 24.593 13.0662 23.2019 12.4436C22.3798 14.8707 19.8927 16.6224 17.3423 16.5696C15.6034 18.6485 12.1361 18.9545 10.0494 17.2133C8.50016 18.659 6.43454 19.7459 4.32677 19.5032C2.45085 19.2816 1.79745 18.1208 0.785715 16.8018C0.153383 15.9787 -1.30098 15.0923 -1.69092 14.1847C-2.13355 13.1506 -1.60661 11.7893 -0.573799 11.3356C-1.4696 10.7868 -2.05978 9.85821 -2.6078 8.96125C-3.70384 7.19898 -4.8315 5.31008 -5.1582 3.30511C-3.63007 2.75638 -1.72253 2.90411 -0.700264 4.14931C-0.173321 4.79301 0.0585332 5.63721 0.26931 6.4392C0.564398 7.58943 0.870026 8.73965 1.16511 9.87932C1.24942 10.1959 1.33374 10.523 1.52344 10.7868C1.90283 11.3039 2.5984 11.4727 3.23073 11.5361C4.67455 11.6838 6.49778 11.1773 6.72963 9.74214C6.65586 10.8713 8.07861 11.4411 9.20626 11.4411C10.492 11.4411 11.7777 11.1351 12.9159 10.5547C13.3375 10.3436 13.738 10.1009 14.2017 10.006C14.697 9.91098 15.2029 10.006 15.6982 10.0587C16.8996 10.1853 18.1538 10.0587 19.2076 9.49943C20.2615 8.94015 21.1046 7.87434 21.21 6.67136C23.0965 7.41003 25.3096 7.2623 27.0802 6.28091C26.6797 7.51556 27.1856 8.99291 28.25 9.73159C29.3144 10.4703 30.8742 10.4175 31.8859 9.60496C32.3918 10.4597 33.4456 10.9662 34.4363 10.8185C35.427 10.6708 36.2806 9.88987 36.523 8.91904C38.0195 9.24617 39.5687 9.55219 41.0863 9.29893C42.6039 9.04567 44.1004 8.1276 44.6168 6.68191C46.6298 7.6844 48.6532 6.93517 50.213 5.60555Z" fill="#FFAA2E"/>
<path d="M-8.05356 60.8275C-12.2288 60.8991 -19.1351 48.7008 -16.3611 46.9541C-13.5872 45.1931 -10.4414 53.8979 -10.4414 53.8979C-10.4414 53.8979 -12.958 42.0719 -9.8123 42.0003C-6.66658 41.9287 -7.5388 54.1556 -7.5388 54.1556C-7.5388 54.1556 -6.4092 41.943 -3.37787 42.0003C-0.360846 42.0576 -4.63616 54.7856 -4.63616 54.7856C-4.63616 54.7856 -1.73352 46.3384 0.783051 46.5961C3.29962 46.8538 0.153906 53.9838 -1.86221 56.0885C-1.86221 56.0885 3.17093 50.1898 4.94398 51.421C6.67412 52.638 -0.246458 60.6986 -8.05356 60.8275Z" fill="#FF6207"/>
<path d="M-1.93377 58.5925C-1.5763 58.3204 0.0394516 57.0605 -0.575393 56.631C-1.23313 56.1729 -2.86319 57.4041 -3.43513 57.6905C-4.22156 58.0771 -4.9651 58.5209 -5.69433 59.0077C-4.67912 58.5495 -3.8069 57.7764 -3.20636 56.8458C-2.89178 56.3733 -2.6773 55.8722 -2.49142 55.3425C-2.34843 54.9702 -1.90517 54.555 -1.99096 54.1398C-2.00526 54.0682 -2.03386 53.9966 -2.09105 53.9537C-2.14825 53.9107 -2.23404 53.8964 -2.30554 53.8964C-2.84889 53.8964 -3.06337 54.2687 -3.40654 54.598C-3.8212 54.9845 -4.32166 55.2995 -4.76492 55.6718C-5.47985 56.2731 -6.66664 57.0892 -7.0956 57.9196C-6.26628 56.316 -5.72293 54.5837 -5.47985 52.8083C-5.42266 52.4218 -4.9222 51.4482 -5.17958 51.1332C-5.78012 50.403 -6.32347 51.6773 -6.49506 52.0352C-6.75244 52.5649 -7.02411 53.0803 -7.26719 53.6101C-7.71045 54.6266 -8.06792 55.6574 -8.41109 56.7169C-8.01072 55.457 -7.91063 54.0969 -8.09651 52.7797C-8.18231 52.1784 -8.39679 51.5913 -8.39679 51.0043C-8.39679 50.6321 -8.35389 50.2885 -8.94014 50.4317C-9.11172 50.4746 -9.28331 50.5462 -9.3834 50.6894C-9.58358 50.9471 -9.66937 51.6773 -9.74087 52.0065C-9.85526 52.522 -9.91245 53.0374 -9.94105 53.5671C-9.98394 54.6409 -9.85526 55.7004 -9.68367 56.7599C-9.92675 55.2279 -11.6998 52.7654 -13.3155 52.4933C-13.4442 52.4647 -13.5729 52.4647 -13.6873 52.522C-13.959 52.6651 -13.9018 53.7246 -13.8875 54.011C-13.8589 54.6266 -13.7159 55.2566 -13.4728 55.8292C-13.001 56.9746 -12.2002 57.9482 -11.4281 58.9075C-10.8562 59.609 -10.2699 60.3249 -9.46919 60.7544C-7.22429 61.9141 -3.66391 59.881 -1.93377 58.5925Z" fill="#EF7E20"/>
<path d="M18.4046 57.1783C18.4046 57.7895 18.1107 58.3667 17.7263 58.8308C16.5168 60.3248 14.6178 60.9021 12.6622 61.0945C11.8935 61.1737 11.1248 61.185 10.3675 61.1737C7.57541 61.1171 4.79464 60.8342 2.02517 60.4946C0.227847 60.2796 -3.33289 60.438 -4.37286 58.5365C-4.64415 58.0498 -4.70067 57.416 -4.58763 56.7029C-4.10156 53.6582 -0.552124 49.3119 1.78779 49.8551C2.42081 50.0023 2.86167 50.7493 2.78254 51.3379C4.399 49.0742 6.72761 47.3198 9.35013 46.3917C10.5596 45.9729 11.8709 45.7125 13.1143 46.0295C14.3578 46.3351 15.4995 47.2971 15.7029 48.5648C15.9855 50.2966 14.5499 51.7906 13.25 52.9564C13.9282 52.3905 14.6178 51.8246 15.4543 51.5529C16.2907 51.2926 17.3081 51.3945 17.8846 52.0509C18.5515 52.8093 18.4159 54.0204 17.8394 54.8466C17.602 55.1862 17.3194 55.4692 17.0029 55.7295C17.1385 55.7182 17.2742 55.7295 17.4098 55.7634C18.0203 55.9445 18.3933 56.5671 18.4046 57.1783Z" fill="#FFAB31"/>
<path opacity="0.4" d="M16.2112 59.1477C15.0808 59.8948 13.8939 60.5513 12.6505 61.1059C11.8818 61.1851 11.1131 61.1964 10.3558 61.1851C7.56369 61.1285 4.78292 60.8455 2.01346 60.506C0.21613 60.2909 -3.34461 60.4494 -4.38457 58.5479C-4.65587 58.0612 -4.71239 57.4273 -4.59935 56.7143C-3.93242 55.4805 -2.90376 54.4166 -1.5812 54.0091C-1.18556 53.8846 -0.744706 53.828 -0.371676 54.0204C0.148305 54.2808 0.283953 55.0391 -0.0212531 55.5145C0.521336 54.9938 1.16566 54.5864 1.87781 54.326C2.44301 54.1223 3.12124 54.0317 3.60731 54.3826C3.92382 54.609 4.03686 55.0731 3.92382 55.4239C4.96378 54.4053 6.17331 53.5564 7.48456 52.9225C8.23062 52.5603 9.08972 52.2661 9.881 52.5037C10.1975 52.5943 10.5027 52.798 10.6384 53.0923C10.774 53.3753 10.7288 53.7148 10.661 54.0204C10.4688 54.892 10.0845 55.7295 9.54188 56.4426C10.7627 55.8088 12.0287 55.2542 13.3287 54.8014C13.9278 54.5864 14.7417 54.4505 15.0921 54.9938C15.2617 55.2655 15.2391 55.6164 15.1712 55.9333C14.9904 56.7708 14.5269 57.5292 13.8826 58.0838C14.4026 57.914 14.9452 57.8122 15.4878 57.7782C15.5895 57.7669 15.7025 57.7669 15.7817 57.8235C15.8947 57.9027 15.9173 58.0612 15.906 58.2083C15.8608 58.6384 15.5556 59.0232 15.1486 59.1591L16.2112 59.1477Z" fill="#FFAA2E"/>
<path d="M4.02487 66.2917C1.59453 66.337 -2.42968 59.2289 -0.813213 58.2103C0.803251 57.1916 2.63449 62.251 2.63449 62.251C2.63449 62.251 1.16498 55.358 2.99621 55.3127C4.82745 55.2674 4.31878 62.3981 4.31878 62.3981C4.31878 62.3981 4.9744 55.2788 6.73782 55.3127C8.50124 55.3467 6.00306 62.7603 6.00306 62.7603C6.00306 62.7603 7.68735 57.8368 9.15686 57.9839C10.6264 58.131 8.79514 62.285 7.61953 63.5187C7.61953 63.5187 10.5586 60.0892 11.5759 60.8022C12.6159 61.5266 8.58036 66.2238 4.02487 66.2917Z" fill="#B63B06"/>
<path d="M67.8759 50.668C69.2143 50.9075 71.54 51.6185 71.7321 51.6733C71.8603 51.7128 73.2236 52.3124 73.5048 53.1668C74.0168 53.307 74.2913 53.5929 74.2866 53.9001C74.2656 54.6594 73.9617 57.2187 73.9617 57.2187L73.8006 57.2528L68.3227 57.5913L49.9066 57.0683C49.9066 57.0683 49.5102 57.0946 49.0887 56.9595C48.7771 56.8558 48.5465 56.3332 48.3821 55.8799C48.362 55.005 48.5845 54.1015 49.1304 52.5338C49.2347 52.2313 49.5502 51.8022 49.8168 51.7003C50.4599 50.4985 52.7741 48.0501 53.397 47.418C53.6737 47.1351 54.3104 46.8184 54.871 46.83C57.6835 46.8968 64.2023 46.8108 65.0923 47.124C65.469 47.2701 67.1152 49.7984 67.8759 50.668Z" fill="#02C0BA"/>
<path d="M50.4921 52.248C51.3405 50.3692 52.5262 48.5569 53.6222 47.7958C53.8766 47.6221 53.7409 47.4114 53.581 47.2649C53.5022 47.3225 53.441 47.3703 53.3893 47.4267C52.7668 48.0679 50.4522 50.5073 49.809 51.709C49.5425 51.811 49.227 52.24 49.1227 52.5425C48.7853 53.5053 48.5729 54.2278 48.464 54.8374C48.3998 55.2284 48.3697 55.5728 48.3834 55.8882C48.5568 56.3411 48.7784 56.8641 49.0901 56.9679C49.0995 56.9765 49.1175 56.9757 49.1269 56.9843C49.2988 55.749 49.4092 54.3447 49.8304 53.0263C49.9488 52.6329 50.2047 52.2876 50.4921 52.248Z" fill="#33CCC8"/>
<path d="M67.7982 50.5618C67.179 49.8305 66.0857 48.1718 65.467 47.4495C65.4729 47.5846 65.2224 47.6407 65.6125 48.0931C65.9839 48.5284 67.4187 50.5603 67.6591 50.8929C67.6783 50.9192 67.7512 50.934 67.7681 50.9062C67.7932 50.86 67.87 50.7573 67.8755 50.6758C67.8559 50.6406 67.8174 50.5881 67.7982 50.5618Z" fill="white"/>
<path d="M73.5049 53.1658C73.2146 52.3117 71.8514 51.7121 71.7322 51.6722C71.5491 51.617 69.4065 50.9611 68.0488 50.6953C68.1975 50.9958 68.5508 51.6394 68.7332 52.0919C68.996 52.7305 68.9062 52.9511 69.1795 53.0024C69.4532 53.0627 73.4642 53.2668 73.4642 53.2668C73.4642 53.2668 73.4896 53.2296 73.5139 53.1654C73.5139 53.1654 73.5139 53.1654 73.5049 53.1658Z" fill="#01B5AF"/>
<path d="M71.732 51.6733C71.5583 51.6267 69.571 51.0092 68.2129 50.7344C68.476 51.1743 68.7662 51.6131 68.8972 51.9233C69.1682 52.5435 69.1471 52.6799 69.4207 52.7401C69.6579 52.793 72.5603 53.0546 73.4569 53.1057C73.4467 53.0791 73.4141 52.9541 73.3949 52.9279C72.9565 52.1976 71.8418 51.7046 71.732 51.6733Z" fill="#03B1AC"/>
<path d="M51.0857 50.551C51.4835 49.9377 52.051 49.0733 52.6362 48.4068C52.6343 48.3617 52.6143 48.3175 52.5848 48.2646C51.9808 48.9139 51.1969 49.7877 50.5984 50.5632C50.7568 50.6737 50.9673 50.7367 51.0857 50.551Z" fill="white"/>
<path d="M51.7701 51.5065C52.5923 50.0622 54.2953 47.6856 56.6868 47.6264C59.8725 47.5506 64.5483 47.4639 65.3785 48.475C66.1419 49.4077 68.3464 51.686 68.3172 52.879C68.3172 52.879 56.1941 52.6857 52.2317 52.5607C51.915 52.5474 51.4092 52.1361 51.7701 51.5065Z" fill="#03B1AC"/>
<path d="M52.3968 50.9907C52.911 50.1467 54.1275 48.4233 55.7332 47.956C56.7682 47.6581 57.7491 47.7778 59.7524 47.7265C59.6795 47.7116 59.6853 47.6391 59.6916 47.5756C58.6527 47.5758 57.6056 47.5944 56.6941 47.6161C54.5731 47.6635 52.9928 49.5382 52.0886 50.968C52.225 50.9891 52.3517 50.9926 52.3968 50.9907Z" fill="#01B5AF"/>
<path d="M53.5629 50.1815C53.5629 50.1815 53.9669 49.0895 55.3197 48.4165C55.9563 48.0998 56.6078 47.9179 58.1286 47.987C59.1424 48.033 58.9119 48.341 58.9379 48.7281C58.9638 49.1152 58.8257 50.7102 58.8257 50.7102C58.8257 50.7102 58.8282 51.1796 58.1272 51.2644C57.4263 51.3491 53.6858 51.1331 53.6858 51.1331C53.6858 51.1331 53.2317 50.8731 53.5629 50.1815Z" fill="white"/>
<path d="M68.0093 51.8245C67.6838 51.1977 65.7466 48.6279 65.7466 48.6279C65.7466 48.6279 65.3015 47.9521 64.4563 47.8355C63.6114 47.7279 59.9372 47.5813 59.9372 47.5813C59.9372 47.5813 59.2781 47.3843 59.2002 48.0829C59.1223 48.7815 58.7735 55.6854 58.7735 55.6854C58.7735 55.6854 58.6377 56.7115 59.421 57.0656L67.0635 57.2648C67.0635 57.2648 67.9263 57.1639 68.0952 56.4794C68.2636 55.7859 68.3491 53.3987 68.3491 53.3987C68.3491 53.3987 68.3344 52.4423 68.0093 51.8245ZM67.8764 56.4348C67.7534 56.9277 67.1528 57.0352 67.054 57.0485L59.4751 56.8555C58.9023 56.5645 58.9938 55.7661 59.0017 55.7386L59.0013 55.7296L59.0009 55.7206C59.0068 55.6481 59.3497 48.8167 59.428 48.1272C59.4538 47.8913 59.5577 47.7874 59.7569 47.7968C59.8204 47.8031 59.8749 47.8097 59.8749 47.8097L59.9023 47.8176L59.9294 47.8164C59.9654 47.8148 63.6032 47.954 64.43 48.0624C65.1569 48.1571 65.553 48.7447 65.5624 48.7533L65.5628 48.7623L65.5632 48.7713C65.5824 48.7976 67.4909 51.3325 67.8062 51.9327C68.0921 52.48 68.1205 53.3364 68.1146 53.4089C68.1201 53.5351 68.0288 55.7871 67.8764 56.4348Z" fill="#01B5AF"/>
<path d="M68.3062 52.8699C68.265 52.5467 68.1752 52.1443 68.0163 51.8172C67.6908 51.1904 65.7537 48.6206 65.7537 48.6206C65.7537 48.6206 65.6862 48.5242 65.5631 48.3941C65.5255 48.3597 65.4788 48.3256 65.4412 48.2911C65.169 48.0592 64.8699 47.8285 63.9438 47.7245C62.6724 47.5723 59.9446 47.583 59.9446 47.583C59.9446 47.583 59.2856 47.386 59.2077 48.0846C59.1615 48.4748 59.0431 50.7281 58.9392 52.6918L68.3062 52.8699Z" fill="#03B1AC"/>
<path d="M59.7033 48.6848L59.5891 50.6219C59.5891 50.6219 59.5881 51.2178 60.0052 51.2538C60.3769 51.2827 64.8262 51.3865 65.8027 51.4071C65.9204 51.411 65.9474 51.4098 65.9925 51.4078C66.6872 51.3866 66.7149 50.9881 66.6267 50.8294C66.3514 50.3178 65.1557 48.3837 64.4904 48.2502C63.7247 48.0941 62.4694 48.1037 60.4367 48.1021C60.4457 48.1017 59.7851 48.0764 59.7033 48.6848Z" fill="white"/>
<path d="M61.2761 52.2463C61.2734 52.3909 61.17 52.5037 61.0523 52.4998L59.4246 52.4625C59.307 52.4586 59.2117 52.3454 59.2144 52.2008C59.2171 52.0563 59.3206 51.9434 59.4382 51.9473L61.066 51.9846C61.1926 51.9881 61.2879 52.1013 61.2761 52.2463Z" fill="#29AAA3"/>
<path d="M71.0913 54.1549C69.4725 54.1172 68.1281 55.3947 68.0813 57.0128C68.0829 57.0489 68.0849 57.0939 68.0774 57.1304L68.3217 57.1378L73.7996 56.7994L73.9156 56.7673C73.7805 55.3286 72.5834 54.1891 71.0913 54.1549Z" fill="#33CCC8"/>
<path d="M52.5533 53.954C51.0157 53.9128 49.7202 55.0708 49.5601 56.5765C49.7785 56.6121 49.9232 56.6148 49.9232 56.6148L55.4047 56.7729C55.3468 55.2406 54.1089 53.9945 52.5533 53.954Z" fill="#33CCC8"/>
<path d="M73.8731 57.24C73.8345 58.632 72.6809 59.7297 71.288 59.6911C69.8951 59.6526 68.7968 58.4998 68.8353 57.1077C68.8739 55.7156 70.0275 54.618 71.4204 54.6566C72.8133 54.6951 73.9116 55.8479 73.8731 57.24Z" fill="#231F20"/>
<path d="M73.1129 57.2191C73.0919 58.186 72.2853 58.9525 71.3087 58.9319C70.3411 58.9109 69.5742 58.1048 69.5948 57.1288C69.6157 56.1618 70.4224 55.3954 71.399 55.4159C72.367 55.4459 73.1339 56.2521 73.1129 57.2191Z" fill="#E6E7E8"/>
<path d="M72.418 57.2042C72.3985 57.7919 71.9128 58.2555 71.3248 58.236C70.7367 58.2165 70.2728 57.7311 70.2923 57.1434C70.3118 56.5558 70.7975 56.0922 71.3855 56.1117C71.9736 56.1311 72.4375 56.6165 72.418 57.2042Z" fill="#BCBEC0"/>
<path d="M55.3067 57.1951C55.2681 58.5871 54.1145 59.6847 52.7216 59.6462C51.3287 59.6077 50.2304 58.4548 50.2689 57.0628C50.3075 55.6707 51.461 54.5731 52.854 54.6116C54.2379 54.6506 55.3366 55.8124 55.3067 57.1951Z" fill="#231F20"/>
<path d="M54.5387 57.1741C54.5177 58.1411 53.7111 58.9076 52.7345 58.887C51.7669 58.866 50.9999 58.0598 51.0205 57.0839C51.0415 56.1169 51.8482 55.3504 52.8248 55.371C53.8018 55.4006 54.5687 56.2068 54.5387 57.1741Z" fill="#E6E7E8"/>
<path d="M53.8516 57.1593C53.8321 57.747 53.3464 58.2105 52.7583 58.1911C52.1703 58.1716 51.7064 57.6862 51.7259 57.0985C51.7454 56.5108 52.2311 56.0473 52.8191 56.0667C53.3982 56.0866 53.862 56.572 53.8516 57.1593Z" fill="#BCBEC0"/>
<path d="M49.1803 55.5473C49.1803 55.5473 49.0777 55.8859 49.0056 56.512C48.97 56.5225 48.9253 56.5335 48.881 56.5535C48.5148 56.2354 48.4025 55.5271 48.3221 55.1334C48.3397 54.9159 48.3118 54.6914 48.3698 54.5715C48.4592 54.5496 48.5043 54.5476 48.5043 54.5476L49.1803 55.5473Z" fill="#03948F"/>
<path d="M49.0538 55.5955C49.0538 55.5955 48.9417 55.9254 48.8697 56.5515C48.4933 56.2068 48.2693 55.6297 48.1881 55.2179C48.2182 54.8735 48.3675 54.5691 48.3675 54.5691L49.0538 55.5955Z" fill="#7AE4E3"/>
<path d="M48.827 56.3652C48.5486 55.9891 48.369 55.5997 48.2623 55.2252C48.2814 55.0438 48.3551 54.869 48.3865 54.7593L48.948 55.6196C48.9155 55.7023 48.8442 55.9311 48.827 56.3652Z" fill="#E6E7E8"/>
<path d="M63.748 46.5985H55.6387V44.1693C55.6387 43.7767 55.9583 43.457 56.351 43.457H63.0357C63.4284 43.457 63.748 43.7767 63.748 44.1693V46.5985Z" fill="#F9B233"/>
<path opacity="0.5" d="M61.4107 43.457H57.7305V46.5711H61.4107V43.457Z" fill="#5589B9"/>
<path d="M61.2369 44.3789H57.8945V43.274C57.8945 43.1278 58.0132 43 58.1685 43H60.9721C61.1182 43 61.246 43.1187 61.246 43.274V44.3789H61.2369Z" fill="#F9B233"/>
<path d="M57.2094 45.0287H55.6387V44.6543H57.2094L57.3464 44.8461L57.2094 45.0287Z" fill="#1D1D1B"/>
<path d="M56.6616 45.047H56.2324V44.627H56.6616V45.047ZM56.2781 45.0014H56.616V44.6726H56.2781V45.0014Z" fill="white"/>
<path d="M62.178 45.0287H63.7487V44.6543H62.178L62.041 44.8461L62.178 45.0287Z" fill="#1D1D1B"/>
<path d="M63.1538 45.047H62.7246V44.627H63.1538V45.047ZM62.7703 45.0014H63.1082V44.6726H62.7703V45.0014Z" fill="white"/>
<path d="M58.8158 44.5707V43H58.4414V44.5707L58.6332 44.7077L58.8158 44.5707Z" fill="#1D1D1B"/>
<path d="M58.8439 44.023H58.4238V43.5938H58.8439V44.023ZM58.4695 43.9773H58.7982V43.6394H58.4695V43.9773Z" fill="white"/>
<path d="M60.6628 44.5707V43H60.2793V44.5707L60.4802 44.7077L60.6628 44.5707Z" fill="#1D1D1B"/>
<path d="M60.6798 44.023H60.2598V43.5938H60.6798V44.023ZM60.3054 43.9773H60.6342V43.6394H60.3054V43.9773Z" fill="white"/>
<path opacity="0.5" d="M63.748 45.6934H55.6387V46.5883H63.748V45.6934Z" fill="#5589B9"/>
<path d="M64.6614 46.5425C64.0679 46.716 63.4469 46.3781 63.2642 45.7845C63.0907 45.1909 63.4286 44.5699 64.0222 44.3873C64.6158 44.2138 65.2368 44.5517 65.4194 45.1452C65.5929 45.7388 65.255 46.3598 64.6614 46.5425Z" fill="#458B96"/>
<path d="M65.0632 46.4224C65.2733 46.2763 65.4194 46.0662 65.5016 45.8197C65.5564 45.6553 65.5746 45.5001 65.5655 45.3448C65.5564 45.2535 65.5472 45.1713 65.5198 45.0891C65.5016 45.0161 65.4742 44.9521 65.4376 44.8882C65.3554 44.7238 65.2276 44.5686 65.0815 44.4681C64.9354 44.3585 64.7527 44.2855 64.5701 44.2581C64.424 44.2398 64.2779 44.2398 64.1409 44.2764C64.0039 44.3129 63.876 44.3768 63.7573 44.459C63.6477 44.5412 63.5473 44.6416 63.4742 44.7604C63.4012 44.8791 63.3464 45.0161 63.3281 45.153C63.3007 45.3631 63.3373 45.5914 63.4286 45.7832C63.529 45.9841 63.6934 46.1393 63.8943 46.2306C64.077 46.3128 64.2779 46.3402 64.4696 46.3037C64.6797 46.2672 64.8714 46.1576 65.0176 45.9932C65.1271 45.8653 65.2002 45.701 65.2276 45.5275C65.2459 45.4087 65.2276 45.29 65.2002 45.1713C65.1545 45.0161 65.0632 44.8791 64.9354 44.7695C64.7984 44.6508 64.634 44.5868 64.4605 44.5777C64.287 44.5686 64.1135 44.6234 63.9765 44.7238C63.8213 44.8334 63.7117 45.0069 63.6843 45.1987C63.6569 45.3813 63.7025 45.564 63.803 45.7101C63.876 45.8014 63.9674 45.8745 64.077 45.9201C64.1957 45.9658 64.3144 45.9749 64.424 45.9567C64.6249 45.911 64.7893 45.774 64.8532 45.5914C64.9262 45.3813 64.8623 45.1622 64.6888 45.0252C64.5884 44.9521 64.4605 44.9247 64.3418 44.9521C64.2139 44.9795 64.1135 45.0708 64.0587 45.1804C64.0313 45.2352 64.0222 45.2992 64.0313 45.3631C64.0404 45.427 64.0678 45.4818 64.1135 45.5275C64.1957 45.6096 64.3235 45.6279 64.4331 45.5822C64.5062 45.5457 64.5427 45.4727 64.5244 45.4087C64.5153 45.3722 64.5062 45.3083 64.4514 45.2718C64.4148 45.2444 64.3783 45.2444 64.3327 45.2444C64.2961 45.2535 64.2687 45.2718 64.2505 45.2992C64.2505 45.29 64.2505 45.29 64.2596 45.2809C64.287 45.2261 64.3327 45.1896 64.3874 45.1804C64.4148 45.1713 64.4788 45.1622 64.5336 45.2078C64.6249 45.2809 64.6614 45.3905 64.6249 45.5092C64.5884 45.6188 64.4879 45.701 64.3692 45.7284C64.2322 45.7558 64.077 45.6918 63.9856 45.5731C63.9126 45.4818 63.8852 45.3631 63.9034 45.2352C63.9217 45.1074 63.9948 44.9887 64.1044 44.9156C64.3053 44.7695 64.5884 44.7878 64.7801 44.9521C64.908 45.0617 64.9902 45.217 64.9993 45.3905C65.0084 45.564 64.9445 45.7466 64.8167 45.8745C64.6066 46.0936 64.2779 46.1576 63.9948 46.0206C63.6843 45.8745 63.5108 45.5366 63.5564 45.1896C63.593 44.9795 63.7117 44.7878 63.8943 44.6508C64.0861 44.5138 64.3144 44.4499 64.5336 44.4864C64.8441 44.5321 65.0906 44.7147 65.2276 44.9887C65.3463 45.2261 65.3646 45.4818 65.2733 45.7466C65.1363 46.1484 64.7801 46.4133 64.3418 46.4315C64.0496 46.4407 63.7756 46.3493 63.5564 46.1484C63.4377 46.0389 63.3555 45.8927 63.2916 45.7649C63.2368 45.6462 63.109 45.5914 62.9902 45.6279C62.9902 45.6279 62.9902 45.637 62.9994 45.637C63.0359 45.7466 63.0816 45.8836 63.1181 45.9475C63.1911 46.0936 63.2916 46.2124 63.4103 46.3219C63.6751 46.5685 64.0039 46.6872 64.3601 46.669C64.6249 46.6507 64.8623 46.5685 65.0632 46.4224Z" fill="#55ACB9"/>
<path d="M62.5093 46.5593C63.1229 46.4682 63.5466 45.8969 63.4555 45.2833C63.3644 44.6696 62.7931 44.246 62.1795 44.3371C61.5658 44.4281 61.1422 44.9994 61.2333 45.6131C61.3243 46.2267 61.8956 46.6504 62.5093 46.5593Z" fill="#CF3736"/>
<path d="M63.5028 45.7757C63.5758 45.5291 63.5758 45.2734 63.4937 45.0269C63.4389 44.8625 63.3567 44.7255 63.2562 44.6068C63.2014 44.5429 63.1375 44.4789 63.0644 44.4241C63.0097 44.3785 62.9457 44.3419 62.8727 44.3054C62.7083 44.2232 62.5165 44.1776 62.3339 44.1867C62.1512 44.1867 61.9686 44.2415 61.8042 44.3328C61.6764 44.4059 61.5668 44.4972 61.4755 44.6159C61.3841 44.7255 61.3202 44.8533 61.2746 44.9903C61.238 45.1273 61.2198 45.2643 61.2289 45.4013C61.238 45.5474 61.2837 45.6844 61.3476 45.8031C61.4481 45.9949 61.6124 46.1501 61.8133 46.2414C62.0143 46.3419 62.2334 46.3693 62.4526 46.3236C62.6444 46.278 62.827 46.1866 62.9549 46.0405C63.101 45.8853 63.1832 45.6844 63.2014 45.4652C63.2106 45.2917 63.174 45.1182 63.0827 44.9721C63.0188 44.8625 62.9366 44.7803 62.8453 44.7072C62.7174 44.6068 62.5622 44.552 62.3887 44.5429C62.206 44.5337 62.0416 44.5794 61.8955 44.6798C61.7494 44.7803 61.649 44.9173 61.5942 45.0816C61.5302 45.2643 61.5576 45.4652 61.649 45.6387C61.7403 45.8031 61.8864 45.9218 62.0599 45.9766C62.1695 46.0131 62.2973 46.0131 62.4069 45.9766C62.5256 45.9492 62.6261 45.8853 62.7083 45.7939C62.8453 45.6387 62.8909 45.4287 62.827 45.2369C62.754 45.0269 62.5713 44.8899 62.3521 44.8899C62.2334 44.8899 62.1147 44.9447 62.0325 45.0451C61.9503 45.1456 61.9138 45.2734 61.9412 45.4013C61.9503 45.4652 61.9869 45.52 62.0325 45.5656C62.0782 45.6113 62.1421 45.6387 62.206 45.6478C62.3156 45.6661 62.4343 45.6022 62.4891 45.5017C62.5256 45.4287 62.5074 45.3556 62.4617 45.3099C62.4343 45.2826 62.3887 45.2369 62.3156 45.246C62.2791 45.246 62.2334 45.2643 62.206 45.2917C62.1786 45.3191 62.1695 45.3465 62.1786 45.383C62.1786 45.3739 62.1695 45.3739 62.1695 45.3647C62.1604 45.3099 62.1786 45.246 62.2152 45.2004C62.2334 45.173 62.2791 45.1364 62.3521 45.1364C62.4709 45.1364 62.5622 45.2095 62.5987 45.3191C62.6352 45.4287 62.6078 45.5474 62.5256 45.6478C62.4343 45.7574 62.2699 45.8031 62.1238 45.7574C62.0143 45.73 61.9138 45.6478 61.859 45.5383C61.7951 45.4195 61.7859 45.2826 61.8225 45.1638C61.8955 44.9264 62.133 44.7712 62.3887 44.7803C62.5622 44.7894 62.7083 44.8625 62.8179 44.9995C62.9275 45.1364 62.9823 45.3191 62.964 45.4926C62.9275 45.8031 62.7083 46.0405 62.3978 46.1044C62.069 46.1775 61.722 46.0131 61.5485 45.7026C61.4481 45.5109 61.4207 45.2917 61.4937 45.0725C61.5576 44.8533 61.7129 44.6616 61.9047 44.552C62.1786 44.4059 62.4891 44.3967 62.7631 44.5337C63.0005 44.6524 63.1649 44.8442 63.2562 45.109C63.3932 45.5109 63.2653 45.9401 62.9275 46.214C62.7083 46.3967 62.4252 46.4971 62.133 46.4606C61.9686 46.4423 61.8133 46.3784 61.6946 46.3053C61.585 46.2414 61.4481 46.278 61.3659 46.3784L61.375 46.3875C61.4663 46.4515 61.585 46.5337 61.649 46.561C61.7951 46.6341 61.9503 46.6706 62.1056 46.6889C62.4617 46.7163 62.7996 46.6158 63.0736 46.3967C63.2836 46.2232 63.4297 46.0131 63.5028 45.7757Z" fill="#EA4A49"/>
<path d="M53.3281 46.5336V45.5017C53.3281 45.2825 53.456 45.0816 53.6569 44.9994L54.0404 44.835C54.2413 44.7528 54.4605 44.7254 54.6705 44.762L55.6568 44.9446C55.7664 44.9629 55.8851 44.972 55.9947 44.9537L57.328 44.7711C57.4193 44.762 57.5106 44.762 57.602 44.7711L59.1361 44.9629C59.2366 44.972 59.3279 44.972 59.4284 44.9629L60.5881 44.7894C60.7343 44.7711 60.8804 44.7711 61.0174 44.8076L61.3552 44.8807C61.6018 44.9355 61.7845 45.1546 61.7845 45.4103L61.7936 46.6249L53.3281 46.5336Z" fill="#55ACB9"/>
<path d="M65.8945 47.0003H53.2374C53.1096 47.0003 53 46.8998 53 46.7628C53 46.635 53.1005 46.5254 53.2374 46.5254H65.8945C66.0224 46.5254 66.132 46.6258 66.132 46.7628C66.1228 46.8907 66.0224 47.0003 65.8945 47.0003Z" fill="#453116"/>
</g>
</g>
<defs>
<clipPath id="clip0_9403_467">
<rect width="124" height="60" fill="white"/>
</clipPath>
<clipPath id="clip1_9403_467">
<rect width="131" height="83" fill="white" transform="translate(-17 -15)"/>
</clipPath>
</defs>
</svg>
