<svg width="124" height="60" viewBox="0 0 124 60" fill="none" xmlns="http://www.w3.org/2000/svg">
<g clip-path="url(#clip0_9401_123)">
<path d="M127.093 28.0603V56.3309H76.3242C76.3242 56.3309 79.376 52.216 84.8142 50.4825C86.554 49.93 88.541 49.6157 90.7562 49.7681C107.223 50.8825 107.622 26.4982 127.093 28.0603Z" fill="#FFC580"/>
<path opacity="0.4" d="M127.093 28.0603V30.3082C127.036 30.3177 126.979 30.3368 126.922 30.3463C124.317 30.8607 121.55 30.3939 119.031 31.3941C118.498 31.6036 117.975 31.8894 117.586 32.3276C116.873 33.1277 116.73 34.3278 115.979 35.0994C114.876 36.2329 112.908 36.0233 111.748 37.0901C110.721 38.0426 110.607 39.7476 109.476 40.5668C108.858 41.0145 107.955 41.1859 107.679 41.9003C107.555 42.2242 107.594 42.5956 107.489 42.9386C107.327 43.4339 106.871 43.7482 106.434 44.0339C103.705 45.8056 100.881 47.4249 97.9817 48.8918C97.2687 49.2537 96.5461 49.6062 95.776 49.8062C94.9109 50.0348 93.9982 50.0634 93.1045 50.0919C91.146 50.1491 89.197 50.2158 87.2385 50.2729C86.4209 50.3015 85.6128 50.3205 84.8047 50.4634C86.5445 49.911 88.5315 49.5966 90.7467 49.749C107.223 50.8825 107.622 26.4982 127.093 28.0603Z" fill="white"/>
<path d="M127.046 60.1124H58.7177C58.7177 60.1124 55.9321 55.9309 67.2362 50.1872C67.5879 50.0063 67.9397 49.8443 68.282 49.6919C78.9396 45.0818 85.2999 54.7974 95.3966 52.1018C105.36 49.4443 108.973 40.2716 122.901 39.481C123.557 39.4429 124.242 39.4238 124.955 39.4238L127.046 60.1124Z" fill="#F78334"/>
<path opacity="0.33" d="M79.9653 54.1869C79.7562 54.1202 79.528 54.0535 79.4139 53.8726C79.2523 53.6344 79.3379 53.3011 79.2143 53.0439C79.0622 52.7295 78.6629 52.6248 78.3111 52.5962C77.2843 52.5105 76.229 52.72 75.3068 53.1868C74.7269 52.7962 74.0899 52.5009 73.4149 52.3104C72.7874 52.1295 72.0839 52.0437 71.4944 52.32C70.8954 52.5962 70.4866 53.3296 70.7528 53.9297C71.0095 54.4917 71.7131 54.6917 72.331 54.6727C72.949 54.6536 73.567 54.4917 74.1754 54.606C74.6603 54.7012 75.0881 54.9584 75.535 55.168C76.866 55.8157 83.2929 57.1016 83.8918 55.0918C82.7605 54.6346 81.2108 54.5584 79.9653 54.1869Z" fill="#EF7E20"/>
<path opacity="0.14" d="M122.91 39.4707C122.606 39.9279 122.387 40.4518 122.15 40.9661C121.228 42.9474 119.183 44.2904 117.101 44.8143C115.865 45.1286 114.515 45.1858 113.489 45.9478C112.966 46.3288 112.576 46.8717 112.034 47.2337C110.779 48.0624 108.906 47.8147 107.946 48.9673C107.68 49.2816 107.509 49.6912 107.185 49.9484C106.796 50.2722 106.254 50.3198 105.759 50.377C103.363 50.6342 101.006 51.2152 98.7619 52.1106C98.8665 52.1201 98.8285 52.4344 98.6669 52.5201C95.9858 53.987 92.7153 53.5489 89.7015 53.0631C87.5434 52.7202 85.3853 52.3677 83.2271 52.0248C82.438 51.901 81.6489 51.7677 80.8979 51.52C80.1278 51.2628 79.4147 50.8818 78.6541 50.6056C75.6404 49.5197 72.2653 50.2246 69.318 51.4914C68.8712 51.6819 68.2247 51.8343 67.9965 51.4057C67.9015 51.2438 67.9205 51.0437 67.949 50.8532C68.006 50.4437 68.1296 50.0531 68.2913 49.6817C78.9489 45.0715 85.3092 54.7871 95.4059 52.0915C105.36 49.4435 108.982 40.2708 122.91 39.4707Z" fill="white"/>
<path d="M128 60H75C75 60 75.8387 59.0404 77.3636 57.9515C79.7081 56.2695 83.6634 54.2857 88.6384 55.062C95.0144 56.0647 103.182 55.5472 115.095 51.903C118.488 50.8679 122.177 49.5849 126.218 48L128 60Z" fill="#FA9A4D"/>
<path d="M118 52.9849C117.563 53.6784 116.832 54.0804 116.101 54.392C113.433 55.5276 110.51 55.7085 107.643 55.8693C105.184 56.01 102.716 56.1608 100.257 56.3015C100.115 56.3116 99.9535 56.3116 99.8491 56.2211C99.7351 56.1206 99.7446 55.8894 99.887 55.8593C97.0392 56.0603 94.1723 56.0402 91.3244 55.799C91.0681 55.7789 90.7074 55.5678 90.8498 55.3367C89.3689 55.4271 87.888 55.5176 86.4071 55.6181C86.1602 55.6382 85.8944 55.6482 85.6666 55.5477C85.4768 55.4673 85.3249 55.3266 85.135 55.2563C84.8787 55.1558 84.5939 55.1859 84.3281 55.2261C82.8472 55.4472 81.2999 55.8191 79.9234 56.4623C79.2114 56.794 77.4292 57.8423 77 58.5C77 57.5 77.9063 57.0629 78 57C80.3353 55.4322 83.4263 54.2211 88.3816 54.9447C94.7324 55.8794 102.868 55.397 114.734 52C115.342 52.1206 115.949 52.2814 116.538 52.4724C117.022 52.6231 117.506 52.804 118 52.9849Z" fill="#FFC580"/>
<path d="M100.18 21.2201C100.342 22.9536 102.481 24.1824 104.049 23.4299C104.297 24.8491 106.17 25.6778 107.386 24.9158C107.795 25.5349 108.233 26.1731 108.879 26.5256C109.526 26.878 110.457 26.8494 110.895 26.2493C111.826 26.897 113.138 26.9351 114.108 26.3446C115.078 25.754 115.648 24.5634 115.496 23.4394C116.837 23.4394 118.234 22.8203 118.881 21.6582C119.537 20.4866 119.194 18.7721 118.006 18.1625C119.156 17.9053 119.67 16.4194 119.289 15.3145C118.9 14.2 117.901 13.4285 116.903 12.8189C112.226 9.98039 106.227 9.44699 101.131 11.4092C100.864 11.5139 100.598 11.6282 100.418 11.8378C100.161 12.1331 100.123 12.5427 100.018 12.9141C99.6285 14.2286 98.231 14.9144 96.9475 14.7525C97.3943 16.2194 96.4246 17.1528 96.5672 18.5816C96.7193 20.3437 98.4401 21.6201 100.18 21.2201Z" fill="#BF8500"/>
<path opacity="0.63" d="M101.446 20.8683C101.75 21.2778 102.378 21.4874 102.796 21.1826C103.053 22.2304 104.384 22.84 105.344 22.3542C105.734 23.5924 107.483 24.1449 108.51 23.3448C109.118 23.802 109.822 24.1259 110.563 24.2687C110.696 24.2973 110.829 24.3164 110.963 24.2783C111.229 24.2021 111.371 23.8972 111.352 23.621C111.333 23.3448 111.2 23.0971 111.067 22.8495C111.581 22.9352 112.113 23.0305 112.617 22.9066C113.121 22.7828 113.606 22.3923 113.663 21.8779C114.119 22.4971 114.956 22.8019 115.707 22.6209C116.211 22.5066 116.705 21.916 116.372 21.5255C116.943 22.0303 117.827 22.4209 118.435 21.9636C118.663 21.7922 118.797 21.535 118.901 21.2778C119.262 20.3348 119.167 19.2299 118.644 18.3727C118.549 18.5346 118.778 18.7346 118.958 18.687C119.139 18.6394 119.243 18.4489 119.31 18.2679C119.595 17.4583 119.414 16.5248 118.958 15.8009C118.502 15.0674 117.798 14.5245 117.057 14.0959C115.83 13.4005 114.442 12.991 113.045 12.9148C112.636 12.8957 112.208 12.8957 111.818 12.7528C111.514 12.6385 111.248 12.4385 110.982 12.2575C108.88 10.8764 105.99 10.8097 103.823 12.0766C103.442 12.3052 103.072 12.5719 102.644 12.6957C101.512 13.0291 100.666 12.8671 99.8771 13.9149C99.3542 14.6007 98.8503 15.4961 98.5746 16.3248C98.0517 17.8964 99.2211 19.7443 101.018 19.4585C101.094 19.9253 101.132 20.4491 101.446 20.8683Z" fill="#BF8500"/>
<path opacity="0.63" d="M104.401 20.3993C105.238 21.409 107.073 21.2851 107.757 20.1612C108.679 20.8089 109.963 20.9232 110.98 20.4469C111.284 20.3041 111.598 19.9992 111.465 19.6944C111.959 20.1707 112.72 20.3326 113.357 20.104C113.994 19.8754 114.488 19.2658 114.564 18.5895C114.83 19.0753 115.515 19.2277 116.028 19.0086C116.542 18.7896 116.884 18.2847 117.055 17.7513C117.454 16.4559 116.884 15.0081 115.914 14.0651C114.945 13.1221 113.633 12.6077 112.321 12.2744C110.98 11.9315 109.602 11.741 108.223 11.7029C107.339 11.6838 106.436 11.7314 105.618 12.0458C104.829 12.341 104.144 12.8649 103.536 13.446C102.262 14.6556 101.625 16.1511 101.834 17.9323C101.901 18.5133 102.148 19.1515 102.49 19.6278C102.728 19.9611 102.965 20.2183 103.365 20.3612C103.507 20.3993 104.401 20.3898 104.401 20.3993Z" fill="#BF8500"/>
<path d="M123.52 25.2682C124.233 24.83 124.775 23.7251 124.1 23.2012C125.478 22.8774 126.619 21.6772 126.876 20.277C127.133 18.8768 126.486 17.3528 125.298 16.5622C125.649 16.6003 125.954 16.2384 125.963 15.8764C125.973 15.5145 125.783 15.1906 125.554 14.9049C124.537 13.6571 122.873 13.1141 121.276 12.9236C120.43 12.8188 119.27 13.057 119.242 13.9047C118.376 12.6188 116.304 12.5617 115.163 13.6094C114.032 14.6572 113.822 16.4765 114.421 17.9053C113.395 17.5147 112.168 18.4292 112.073 19.5341C111.969 20.658 112.824 21.601 113.813 22.0011C111.427 23.125 114.279 26.0683 115.705 26.4207C116.874 26.716 118.272 26.8113 119.384 26.335C120.287 25.954 120.287 25.8683 121.238 25.773C122.075 25.7064 122.759 25.7349 123.52 25.2682Z" fill="#EFB700"/>
<path opacity="0.63" d="M115.078 24.3151C115.734 24.2484 116.333 23.7912 116.552 23.1721C117.246 23.8388 118.301 24.1055 119.233 23.8388C119.556 23.7436 119.898 23.5245 119.898 23.2006C120.535 23.5816 121.353 23.7245 122.037 23.4388C122.722 23.153 123.207 22.3624 123.017 21.6385C124.129 21.9719 125.317 20.8765 125.355 19.7144C125.393 18.5524 124.566 17.4951 123.559 16.914C122.551 16.333 121.372 16.1235 120.231 15.9044C119.214 15.7044 118.187 15.4853 117.151 15.5424C116.114 15.5996 115.059 15.9711 114.394 16.7616C114.118 17.095 113.918 17.4856 113.671 17.838C113.196 18.5238 112.53 19.1144 112.321 19.9145C111.998 21.1432 112.825 21.9624 113.319 22.972C113.7 23.7531 114.004 24.4199 115.078 24.3151Z" fill="#BF8500"/>
<path d="M103.992 17.2086C103.992 17.2086 105.656 19.6756 107.7 21.9712C108.974 23.3999 110.4 24.762 111.665 25.4288C111.665 25.4288 113.747 42.6788 115.097 48.1177L122.797 48.3463C122.797 48.3463 116.409 36.7732 114.964 27.1719C114.964 27.1719 116.304 25.6955 117.721 23.1428C118.434 21.8569 119.175 20.2852 119.774 18.504L119.061 17.9325C119.061 17.9325 117.768 20.59 116.418 22.5903C115.838 23.4571 115.239 24.2001 114.735 24.543L114.327 22.676L114.308 22.5998C114.308 22.5998 115.99 17.1229 116.076 16.6085L114.802 15.9608L113.072 21.3425L112.587 15.6465L110.837 15.7989C110.837 15.7989 110.904 18.9803 111.322 22.2569C111.37 22.6094 111.417 22.9618 111.474 23.3142C111.474 23.3142 110.856 22.857 110.02 22.1426C108.603 20.9329 106.559 18.9803 105.77 17.2181H103.992V17.2086Z" fill="#453116"/>
<path opacity="0.52" d="M119.061 17.9238C119.061 17.9238 117.768 20.5813 116.418 22.5816C116.779 22.8864 117.245 23.0769 117.72 23.1341C118.434 21.8482 119.175 20.2765 119.774 18.4953L119.061 17.9238Z" fill="#453116"/>
<path opacity="0.52" d="M112.595 15.6289L110.846 15.7813C110.846 15.7813 110.912 18.9627 111.331 22.2394C111.987 22.5251 112.823 22.4394 113.337 21.9345C113.555 22.2965 113.917 22.5442 114.325 22.6585L114.306 22.5823C114.306 22.5823 115.989 17.1053 116.075 16.5909L114.801 15.9432L113.07 21.3249L112.595 15.6289Z" fill="#453116"/>
<path opacity="0.52" d="M103.992 17.2087C103.992 17.2087 105.656 19.6758 107.7 21.9713C107.862 21.8761 108.033 21.7713 108.204 21.6475C108.66 22.1428 109.411 22.3523 110.029 22.1237C108.613 20.914 106.569 18.9614 105.78 17.1992H103.992V17.2087Z" fill="#453116"/>
<path d="M93.1881 8.98171C93.2936 9.51747 93.3992 10.0532 93.5048 10.5781C93.5336 10.7093 93.5527 10.8405 93.5815 10.9717C93.7447 11.7698 93.9078 12.6008 94.3397 13.2568C94.7716 13.9129 95.5297 14.3612 96.2207 14.1097C96.1151 15.7716 97.929 17.1384 99.2342 16.3839C99.8004 18.7019 102.632 19.8281 104.34 18.3958C104.896 19.3033 106.182 18.9862 106.931 18.2755C107.785 17.4664 108.351 16.2855 108.495 15.0391C109.177 15.881 110.347 16.1653 111.259 15.6951C111.797 17.5101 113.438 18.8222 115.117 18.7784C116.259 20.3311 118.543 20.5607 119.916 19.2595C120.933 20.342 122.296 21.1511 123.678 20.9761C124.916 20.8121 125.338 19.9484 126.01 18.9534C126.422 18.3411 127.382 17.6741 127.641 16.9962C127.939 16.2199 127.593 15.2031 126.912 14.8641C127.497 14.4486 127.881 13.7598 128.255 13.0928C128.975 11.7808 129.714 10.3594 129.935 8.86144C130.002 8.40222 130.021 7.93206 129.973 7.46191C129.762 5.36261 128.102 3.58039 126.25 3.44918C125.818 1.82004 124.57 0.497041 123.111 0.114357C121.653 -0.268328 120.031 0.300232 119.014 1.54669C117.353 -0.825955 114.225 -1.6788 111.806 -0.421402C110.981 0.00501801 110.165 0.846925 110.261 1.87471C108.255 0.562645 105.846 0.103422 103.572 0.595446C101.854 0.967197 100.031 2.16992 99.762 4.13801C98.4088 3.89747 97.0173 3.66786 95.6929 4.06148C94.3685 4.4551 93.1305 5.64689 93.0153 7.19949C92.9577 7.81179 93.0729 8.40222 93.1881 8.98171Z" fill="#FFCC40"/>
<path opacity="0.4" d="M93.7148 12.1141C93.7434 12.2284 93.7624 12.3427 93.7909 12.457C93.9525 13.1524 94.1141 13.8763 94.542 14.4478C94.9698 15.0193 95.7209 15.4098 96.4054 15.1907C96.3008 16.6386 98.0977 17.8292 99.3907 17.172C99.9516 19.1913 102.756 20.1724 104.449 18.9246C105 19.7152 106.274 19.439 107.015 18.8198C107.862 18.115 108.423 17.0862 108.565 16.0004C109.24 16.7338 110.4 16.9815 111.303 16.5719C111.836 18.1531 113.461 19.2961 115.125 19.258C116.256 20.6105 118.519 20.8106 119.879 19.6771C120.887 20.6201 122.237 21.3249 123.606 21.1725C124.832 21.0297 125.25 20.2772 125.916 19.4104C126.325 18.877 127.275 18.2959 127.532 17.7054C127.827 17.0291 127.485 16.1433 126.81 15.848C127.389 15.486 127.77 14.8859 128.141 14.3049C128.854 13.1619 129.586 11.9236 129.804 10.6187C128.806 10.2567 127.57 10.352 126.895 11.1711C126.553 11.5902 126.401 12.1332 126.268 12.6666C126.077 13.4191 125.878 14.162 125.688 14.9145C125.631 15.1241 125.574 15.3336 125.45 15.5051C125.203 15.848 124.746 15.9528 124.338 15.9909C123.396 16.0861 122.208 15.7527 122.056 14.8193C122.103 15.5527 121.172 15.9337 120.44 15.9242C119.603 15.9242 118.766 15.7242 118.015 15.3431C117.74 15.2098 117.473 15.0479 117.179 14.9812C116.855 14.9145 116.532 14.9812 116.199 15.0098C115.42 15.0955 114.602 15.0098 113.908 14.6383C113.214 14.2668 112.672 13.5715 112.606 12.7904C111.379 13.2762 109.934 13.1809 108.784 12.5332C109.041 13.3429 108.717 14.2954 108.023 14.7812C107.329 15.2669 106.312 15.2288 105.656 14.705C105.323 15.2669 104.639 15.5908 103.992 15.4955C103.346 15.4003 102.785 14.8859 102.633 14.2573C101.653 14.4764 100.646 14.6669 99.6569 14.5049C98.6681 14.343 97.6984 13.7429 97.3561 12.7999C96.0441 13.4667 94.7226 12.9809 93.7148 12.1141Z" fill="#FFAA2E"/>
<path d="M117.034 51.8637C114.258 51.9113 109.666 43.7959 111.511 42.6338C113.355 41.4622 115.447 47.2535 115.447 47.2535C115.447 47.2535 113.773 39.3857 115.865 39.3381C117.957 39.2905 117.377 47.4249 117.377 47.4249C117.377 47.4249 118.128 39.3 120.143 39.3381C122.149 39.3762 119.307 47.844 119.307 47.844C119.307 47.844 121.237 42.2242 122.91 42.3957C124.583 42.5671 122.492 47.3106 121.151 48.7108C121.151 48.7108 124.498 44.7865 125.677 45.6056C126.836 46.4058 122.225 51.7779 117.034 51.8637Z" fill="#FFAB31"/>
<path opacity="0.4" d="M121.102 50.3674C121.34 50.1865 122.414 49.3483 122.006 49.0625C121.568 48.7577 120.484 49.5769 120.104 49.7674C119.581 50.0245 119.087 50.3198 118.602 50.6437C119.277 50.3389 119.857 49.8245 120.256 49.2054C120.465 48.8911 120.608 48.5577 120.732 48.2052C120.827 47.9576 121.121 47.6814 121.064 47.4051C121.055 47.3575 121.036 47.3099 120.998 47.2813C120.96 47.2527 120.903 47.2432 120.855 47.2432C120.494 47.2432 120.351 47.4909 120.123 47.7099C119.847 47.9671 119.515 48.1767 119.22 48.4243C118.745 48.8244 117.956 49.3673 117.67 49.9198C118.222 48.853 118.583 47.7004 118.745 46.5193C118.783 46.2621 119.115 45.6144 118.944 45.4048C118.545 44.9191 118.184 45.7668 118.07 46.0049C117.899 46.3574 117.718 46.7003 117.556 47.0527C117.262 47.729 117.024 48.4148 116.796 49.1197C117.062 48.2814 117.128 47.3766 117.005 46.5002C116.948 46.1002 116.805 45.7096 116.805 45.3191C116.805 45.0715 116.834 44.8429 116.444 44.9381C116.33 44.9667 116.216 45.0143 116.149 45.1096C116.016 45.281 115.959 45.7668 115.912 45.9859C115.835 46.3288 115.797 46.6717 115.778 47.0241C115.75 47.7385 115.835 48.4434 115.95 49.1482C115.788 48.129 114.609 46.4907 113.535 46.3097C113.449 46.2907 113.364 46.2907 113.288 46.3288C113.107 46.424 113.145 47.1289 113.154 47.3194C113.173 47.729 113.268 48.1481 113.43 48.5291C113.744 49.2911 114.276 49.9388 114.79 50.577C115.17 51.0437 115.56 51.52 116.092 51.8057C117.585 52.5868 119.952 51.2247 121.102 50.3674Z" fill="#FFAA2E"/>
<path d="M112.091 46.3669C110.342 45.824 108.193 46.8908 109.277 48.9673C109.125 48.0148 108.041 47.3385 107.119 47.6147C106.016 47.9386 105.541 49.3292 105.807 50.4437C106.073 51.5581 106.881 52.4535 107.661 53.3012C107.309 52.9297 106.643 52.9869 106.311 53.3679C105.978 53.7489 105.978 54.3585 106.244 54.7871C106.52 55.2158 107.024 55.4634 107.528 55.5111C107.309 55.8063 107.005 56.0254 106.662 56.1588C106.548 56.9875 107.271 57.7495 108.069 57.9781C109.087 58.2733 111.14 58.4543 112.234 58.4162C113.679 58.3686 115.038 57.759 116.436 57.378C118.594 56.7874 122.482 57.3685 123.842 55.311C124.755 53.9394 124.289 52.1582 123.509 50.8533C122.692 49.5007 121.284 48.2529 119.744 47.8243C118.442 47.4623 115.675 47.729 115.913 49.6341C115.152 48.091 113.736 46.8718 112.091 46.3669Z" fill="#FF6207"/>
<path d="M118.45 52.2531C118.051 50.891 116.387 50.329 114.971 50.4052C114.077 50.4529 113.145 50.7005 112.556 51.3768C111.966 52.0436 111.909 53.2247 112.622 53.7581C112.204 52.9389 111.101 52.5484 110.255 52.9103C109.409 53.2723 108.934 54.3391 109.238 55.2154C108.858 54.9868 108.344 55.4154 108.354 55.8631C108.363 56.3108 108.705 56.6728 109.067 56.9299C109.428 57.1871 109.837 57.3967 110.122 57.7396C109.875 57.4253 109.314 57.5586 109.143 57.9206C108.972 58.2825 109.133 58.7302 109.428 59.0064C109.723 59.2827 110.112 59.4065 110.493 59.5113C113.858 60.4447 117.585 59.9685 120.608 58.2254C121.131 57.9206 121.645 57.5777 122.006 57.0919C123.175 55.5012 122.082 53.7676 121.322 52.2912C121.017 51.6816 120.57 50.9482 119.81 50.8529C119.087 50.7481 118.089 51.4244 118.45 52.2531Z" fill="#EF7E20"/>
<path d="M108.497 60.2071C106.767 61.2929 100.787 57.921 101.509 56.4827C102.232 55.0444 105.74 57.902 105.74 57.902C105.74 57.902 101.7 53.568 103.002 52.7393C104.305 51.9107 107.024 57.2733 107.024 57.2733C107.024 57.2733 104.419 51.8535 105.702 51.1105C106.986 50.3676 108.393 56.797 108.393 56.797C108.393 56.797 107.48 52.5203 108.602 51.9869C109.724 51.4534 110.199 55.254 109.885 56.6446C109.885 56.6446 110.513 52.8917 111.568 52.9679C112.614 53.0346 111.739 58.1782 108.497 60.2071Z" fill="#B63B06"/>
<path opacity="0.4" d="M110.502 57.7213C110.587 57.5213 110.939 56.5783 110.578 56.5593C110.188 56.5402 109.817 57.4642 109.646 57.7309C109.418 58.0928 109.209 58.4738 109.028 58.8548C109.342 58.4071 109.503 57.8642 109.532 57.3117C109.541 57.0355 109.503 56.7688 109.456 56.4926C109.418 56.3021 109.503 56.0163 109.361 55.8639C109.332 55.8353 109.304 55.8163 109.266 55.8068C109.228 55.8068 109.19 55.8163 109.161 55.8354C108.933 55.9687 108.933 56.1878 108.876 56.4069C108.8 56.6736 108.667 56.9307 108.581 57.1974C108.438 57.6261 108.144 58.2738 108.172 58.731C108.115 57.8547 107.906 56.9879 107.564 56.1687C107.488 55.9878 107.459 55.4543 107.269 55.3877C106.832 55.2353 106.927 55.902 106.946 56.1021C106.974 56.3878 106.984 56.6736 107.022 56.9593C107.088 57.5022 107.203 58.0261 107.326 58.55C107.174 57.9214 106.879 57.3213 106.47 56.8164C106.28 56.5878 106.043 56.3973 105.9 56.1402C105.805 55.9782 105.738 55.8258 105.529 56.0354C105.463 56.0925 105.415 56.1687 105.406 56.2545C105.387 56.4164 105.539 56.7402 105.586 56.9022C105.662 57.1498 105.776 57.3784 105.9 57.607C106.147 58.0642 106.47 58.4833 106.813 58.8834C106.318 58.3024 104.959 57.7213 104.217 58.0071C104.16 58.0261 104.103 58.0642 104.065 58.1119C103.989 58.2452 104.284 58.6738 104.36 58.7881C104.522 59.0453 104.75 59.2644 104.987 59.4454C105.472 59.8073 106.052 60.0169 106.623 60.2264C107.041 60.3788 107.469 60.5312 107.916 60.5027C109.114 60.455 110.093 58.7024 110.502 57.7213Z" fill="#B63B06"/>
</g>
<defs>
<clipPath id="clip0_9401_123">
<rect width="124" height="60" fill="white"/>
</clipPath>
</defs>
</svg>
