<svg width="20" height="20" viewBox="0 0 20 20" fill="none" xmlns="http://www.w3.org/2000/svg">
<path d="M16.8571 2H3.14286C2.83975 2 2.54906 2.12041 2.33474 2.33474C2.12041 2.54906 2 2.83975 2 3.14286V16.8571C2 17.1602 2.12041 17.4509 2.33474 17.6653C2.54906 17.8796 2.83975 18 3.14286 18H16.8571C17.1602 18 17.4509 17.8796 17.6653 17.6653C17.8796 17.4509 18 17.1602 18 16.8571V3.14286C18 2.83975 17.8796 2.54906 17.6653 2.33474C17.4509 2.12041 17.1602 2 16.8571 2ZM7.71429 5.04762C8.01567 5.04762 8.31028 5.13699 8.56087 5.30443C8.81146 5.47187 9.00677 5.70985 9.1221 5.98829C9.23744 6.26673 9.26761 6.57312 9.20882 6.86871C9.15002 7.1643 9.00489 7.43582 8.79178 7.64892C8.57867 7.86203 8.30716 8.00716 8.01157 8.06596C7.71598 8.12476 7.40959 8.09458 7.13115 7.97925C6.85271 7.86391 6.61472 7.6686 6.44728 7.41801C6.27985 7.16742 6.19048 6.87281 6.19048 6.57143C6.19048 6.16729 6.35102 5.7797 6.63679 5.49393C6.92256 5.20816 7.31015 5.04762 7.71429 5.04762ZM15.6027 9.50743L11.0312 14.0789C10.9598 14.1503 10.8629 14.1904 10.7619 14.1904C10.6609 14.1904 10.564 14.1503 10.4926 14.0789L7.71429 11.3006L4.936 14.0789C4.86415 14.1483 4.76792 14.1866 4.66804 14.1858C4.56815 14.1849 4.47261 14.1448 4.40197 14.0742C4.33134 14.0036 4.29128 13.908 4.29041 13.8082C4.28954 13.7083 4.32794 13.612 4.39733 13.5402L7.44495 10.4926C7.51639 10.4212 7.61327 10.381 7.71429 10.381C7.8153 10.381 7.91218 10.4212 7.98362 10.4926L10.7619 13.2709L15.064 8.96876C15.1358 8.89937 15.2321 8.86097 15.332 8.86184C15.4318 8.86271 15.5274 8.90277 15.598 8.9734C15.6687 9.04403 15.7087 9.13958 15.7096 9.23947C15.7105 9.33935 15.6721 9.43558 15.6027 9.50743Z" fill="#121924"/>
</svg>
