<svg width="20" height="18" viewBox="0 0 20 18" fill="none" xmlns="http://www.w3.org/2000/svg">
<path d="M7.91634 0.25H1.24967C1.01956 0.25 0.833008 0.436548 0.833008 0.666667V7.33333C0.833008 7.56345 1.01956 7.75 1.24967 7.75H7.91634C8.14646 7.75 8.33301 7.56345 8.33301 7.33333V0.666667C8.33301 0.436548 8.14646 0.25 7.91634 0.25Z" fill="#121924"/>
<path d="M7.91634 10.25H1.24967C1.01956 10.25 0.833008 10.4365 0.833008 10.6667V17.3333C0.833008 17.5635 1.01956 17.75 1.24967 17.75H7.91634C8.14646 17.75 8.33301 17.5635 8.33301 17.3333V10.6667C8.33301 10.4365 8.14646 10.25 7.91634 10.25Z" fill="#121924"/>
<path d="M11.2497 2.33333H18.7497C18.8602 2.33333 18.9662 2.28943 19.0443 2.21129C19.1224 2.13315 19.1663 2.02717 19.1663 1.91667C19.1663 1.80616 19.1224 1.70018 19.0443 1.62204C18.9662 1.5439 18.8602 1.5 18.7497 1.5H11.2497C11.1392 1.5 11.0332 1.5439 10.955 1.62204C10.8769 1.70018 10.833 1.80616 10.833 1.91667C10.833 2.02717 10.8769 2.13315 10.955 2.21129C11.0332 2.28943 11.1392 2.33333 11.2497 2.33333Z" fill="#121924"/>
<path d="M18.7497 5.66669H11.2497C11.1392 5.66669 11.0332 5.71059 10.955 5.78873C10.8769 5.86687 10.833 5.97285 10.833 6.08335C10.833 6.19386 10.8769 6.29984 10.955 6.37798C11.0332 6.45612 11.1392 6.50002 11.2497 6.50002H18.7497C18.8602 6.50002 18.9662 6.45612 19.0443 6.37798C19.1224 6.29984 19.1663 6.19386 19.1663 6.08335C19.1663 5.97285 19.1224 5.86687 19.0443 5.78873C18.9662 5.71059 18.8602 5.66669 18.7497 5.66669Z" fill="#121924"/>
<path d="M18.7497 11.5H11.2497C11.1392 11.5 11.0332 11.5439 10.955 11.622C10.8769 11.7002 10.833 11.8062 10.833 11.9167C10.833 12.0272 10.8769 12.1332 10.955 12.2113C11.0332 12.2894 11.1392 12.3333 11.2497 12.3333H18.7497C18.8602 12.3333 18.9662 12.2894 19.0443 12.2113C19.1224 12.1332 19.1663 12.0272 19.1663 11.9167C19.1663 11.8062 19.1224 11.7002 19.0443 11.622C18.9662 11.5439 18.8602 11.5 18.7497 11.5Z" fill="#121924"/>
<path d="M18.7497 15.6667H11.2497C11.1392 15.6667 11.0332 15.7106 10.955 15.7887C10.8769 15.8669 10.833 15.9728 10.833 16.0834C10.833 16.1939 10.8769 16.2998 10.955 16.378C11.0332 16.4561 11.1392 16.5 11.2497 16.5H18.7497C18.8602 16.5 18.9662 16.4561 19.0443 16.378C19.1224 16.2998 19.1663 16.1939 19.1663 16.0834C19.1663 15.9728 19.1224 15.8669 19.0443 15.7887C18.9662 15.7106 18.8602 15.6667 18.7497 15.6667Z" fill="#121924"/>
</svg>
