<svg width="16" height="18" viewBox="0 0 16 18" fill="none" xmlns="http://www.w3.org/2000/svg">
<path fill-rule="evenodd" clip-rule="evenodd" d="M5.63069 16.3095V13.7539C5.63067 13.1039 6.16061 12.5757 6.81718 12.5713H9.22225C9.88196 12.5713 10.4168 13.1008 10.4168 13.7539V16.3175C10.4166 16.8694 10.8616 17.3204 11.4189 17.3334H13.0222C14.6206 17.3334 15.9163 16.0506 15.9163 14.4682V7.19822C15.9078 6.57571 15.6126 5.99115 15.1147 5.61088L9.63111 1.23777C8.67045 0.476326 7.30484 0.476326 6.34419 1.23777L0.884696 5.61882C0.38489 5.99754 0.0891634 6.58308 0.0830078 7.20615V14.4682C0.0830078 16.0506 1.37874 17.3334 2.9771 17.3334H4.58048C5.15164 17.3334 5.61465 16.875 5.61465 16.3095" fill="#121924"/>
</svg>
