<?xml version="1.0" encoding="UTF-8"?>
<svg width="28px" height="28px" viewBox="0 0 24 24" version="1.1" xmlns="http://www.w3.org/2000/svg" xmlns:xlink="http://www.w3.org/1999/xlink">
    <title>464DBF70-DCE9-4555-92D9-4B2924D25189</title>
    <g id="Đơn-hàng-/-Hóa-đơn" stroke="none" stroke-width="1" fill="none" fill-rule="evenodd">
        <g id="8.4-Đơn-hàng---Đã-lên-lịch---Chưa-thanh-toán" transform="translate(-1223.000000, -19.000000)" fill="#000000">
            <g id="Top-Bar-/-Signed-In" transform="translate(0.000000, -1.000000)">
                <g id="Icon-/-Bell" transform="translate(1223.000000, 20.000000)">
                    <path d="M5.61779353,17.3772223 C7.56914664,18.2366015 9.69455845,18.6666667 12,18.6666667 C14.3054357,18.6666667 16.4308426,18.2366037 18.382207,17.3772233 L17.05349,15.1626949 C15.5459241,15.7218014 13.8603695,16 12,16 C10.1396305,16 8.45407593,15.7218014 6.94650999,15.1626949 L5.61779353,17.3772223 Z M7.38521963,13.9032801 C8.7445774,14.4112813 10.2817561,14.6666667 12,14.6666667 C13.7106212,14.6666667 15.2417802,14.4135422 16.5966783,13.9100261 L15.9511505,9.55271353 C15.6487601,7.511579 13.8967456,6 11.8333333,6 C9.80094317,6 8.09356441,7.52817705 7.86912447,9.5481366 L7.38521963,13.9032801 L7.38521963,13.9032801 Z M10.2214483,4.91565733 C10.0799155,4.64130225 10,4.32998375 10,4 C10,2.8954305 10.8954305,2 12,2 C13.1045695,2 14,2.8954305 14,4 C14,4.36576636 13.9018131,4.70859995 13.7303591,5.00358119 C15.5715745,5.68107631 16.9681537,7.31925606 17.2700884,9.35731533 L17.9733361,14.1042376 L19.717589,17.0113257 C19.7427329,17.0548704 19.7427329,17.0548704 19.7649039,17.1000013 C20.0000818,17.5997204 19.7856242,18.1954747 19.2859123,18.4306317 C17.8208365,19.1201259 16.2658057,19.5822971 14.6228403,19.8173995 C14.3951505,21.0590559 13.3074599,22 12,22 C10.6925401,22 9.6048495,21.0590559 9.37715975,19.8173995 C7.73419246,19.5822969 6.17916007,19.1201249 4.71408298,18.4306295 C4.66895235,18.4084585 4.66895235,18.4084585 4.6254079,18.3833148 C4.15182284,18.0991638 3.99825779,17.4848943 4.2824125,17.0113232 L6.02014535,14.1151018 L6.54394615,9.40089453 C6.78153223,7.26261979 8.26453903,5.53736011 10.2214483,4.91565733 Z M12,20.6666667 C12.5080604,20.6666667 12.9497509,20.3825035 13.1748065,19.9644423 C12.7877581,19.9881485 12.3961479,20 12,20 C11.6038521,20 11.2122419,19.9881485 10.8251935,19.9644423 C11.0502491,20.3825035 11.4919396,20.6666667 12,20.6666667 Z M12,4.66666667 C12.3681898,4.66666667 12.6666667,4.36818983 12.6666667,4 C12.6666667,3.63181017 12.3681898,3.33333333 12,3.33333333 C11.6318102,3.33333333 11.3333333,3.63181017 11.3333333,4 C11.3333333,4.36818983 11.6318102,4.66666667 12,4.66666667 Z" id="Shape"></path>
                </g>
            </g>
        </g>
    </g>
</svg>