<svg width="20" height="14" viewBox="0 0 20 14" fill="none" xmlns="http://www.w3.org/2000/svg">
<path fill-rule="evenodd" clip-rule="evenodd" d="M13.4649 3.86069C13.4649 5.81876 11.904 7.38882 9.9572 7.38882C8.01044 7.38882 6.44946 5.81876 6.44946 3.86069C6.44946 1.90187 8.01044 0.333313 9.9572 0.333313C11.904 0.333313 13.4649 1.90187 13.4649 3.86069ZM9.9572 13.6666C7.09788 13.6666 4.65642 13.2133 4.65642 11.4001C4.65642 9.58615 7.08221 9.11633 9.9572 9.11633C12.8165 9.11633 15.258 9.56964 15.258 11.3836C15.258 13.1968 12.8322 13.6666 9.9572 13.6666ZM14.9639 3.92433C14.9639 4.9225 14.6662 5.85238 14.1439 6.6254C14.0902 6.70496 14.1379 6.81228 14.2327 6.82879C14.3633 6.8513 14.4983 6.86406 14.6356 6.86781C16.0048 6.90384 17.2338 6.01749 17.5733 4.68309C18.0762 2.70101 16.5995 0.921558 14.7192 0.921558C14.5147 0.921558 14.3192 0.943323 14.129 0.982349C14.1028 0.988353 14.0752 1.00036 14.0603 1.02363C14.0424 1.05215 14.0558 1.09042 14.0737 1.11519C14.6386 1.91148 14.9639 2.88263 14.9639 3.92433ZM17.2315 8.26045C18.1516 8.44132 18.7567 8.81057 19.0074 9.34718C19.2193 9.78773 19.2193 10.2988 19.0074 10.7386C18.6239 11.5709 17.3875 11.8381 16.9069 11.9072C16.8077 11.9222 16.7279 11.8359 16.7383 11.736C16.9838 9.42974 15.0311 8.33625 14.5259 8.08483C14.5043 8.07358 14.4998 8.05631 14.502 8.04581C14.5035 8.0383 14.5125 8.02629 14.5289 8.02404C15.622 8.00378 16.7973 8.15388 17.2315 8.26045ZM5.36393 6.86774C5.50122 6.86399 5.63553 6.85198 5.76686 6.82871C5.86162 6.8122 5.90938 6.70488 5.85565 6.62533C5.33334 5.85231 5.03561 4.92243 5.03561 3.92426C5.03561 2.88255 5.36094 1.9114 5.92579 1.11511C5.9437 1.09035 5.95639 1.05207 5.93922 1.02355C5.9243 1.00104 5.89595 0.988278 5.87058 0.982274C5.67956 0.943248 5.48406 0.921483 5.27961 0.921483C3.39927 0.921483 1.9226 2.70093 2.42626 4.68302C2.76577 6.01742 3.99471 6.90376 5.36393 6.86774ZM5.49712 8.04536C5.49936 8.05661 5.49488 8.07313 5.47399 8.08513C4.96809 8.33655 3.01537 9.43004 3.26086 11.7356C3.2713 11.8362 3.19221 11.9217 3.09297 11.9075C2.61243 11.8384 1.37603 11.5712 0.992501 10.7389C0.779843 10.2984 0.779843 9.78803 0.992501 9.34748C1.24321 8.81087 1.84761 8.44162 2.76764 8.26C3.20265 8.15418 4.37712 8.00408 5.47101 8.02434C5.48742 8.02659 5.49563 8.0386 5.49712 8.04536Z" fill="#130F26"/>
</svg>
