<svg width="18" height="14" viewBox="0 0 18 14" fill="none" xmlns="http://www.w3.org/2000/svg">
<path fill-rule="evenodd" clip-rule="evenodd" d="M17.1564 5.78252C17.0435 5.89213 16.8904 5.95476 16.7292 5.95476C16.1328 5.95476 15.6493 6.42452 15.6493 6.99606C15.6493 7.57152 16.1272 8.03893 16.7179 8.04519C17.0508 8.04833 17.3337 8.27381 17.3337 8.59716V10.6054C17.3337 12.2957 15.9233 13.6666 14.1825 13.6666H11.5551C11.2835 13.6666 11.0635 13.4529 11.0635 13.1891V11.4979C11.0635 11.1691 10.7976 10.9107 10.4591 10.9107C10.1286 10.9107 9.85461 11.1691 9.85461 11.4979V13.1891C9.85461 13.4529 9.63459 13.6666 9.3638 13.6666H3.81819C2.08543 13.6666 0.666992 12.2965 0.666992 10.6054V8.59716C0.666992 8.27381 0.949874 8.04833 1.28272 8.04519C1.87428 8.03893 2.35139 7.57152 2.35139 6.99606C2.35139 6.44018 1.88395 6.0174 1.27144 6.0174C1.11025 6.0174 0.957128 5.95476 0.844297 5.84515C0.731467 5.73554 0.666992 5.58679 0.666992 5.4302V3.40241C0.666992 1.71441 2.08866 0.333313 3.82624 0.333313H9.3638C9.63459 0.333313 9.85461 0.547053 9.85461 0.810902V2.81521C9.85461 3.13621 10.1286 3.40241 10.4591 3.40241C10.7976 3.40241 11.0635 3.13621 11.0635 2.81521V0.810902C11.0635 0.547053 11.2835 0.333313 11.5551 0.333313H14.1825C15.9233 0.333313 17.3337 1.70344 17.3337 3.39458V5.36757C17.3337 5.52415 17.2692 5.67291 17.1564 5.78252ZM10.4591 9.39184C10.7976 9.39184 11.0635 9.12564 11.0635 8.80464V5.67291C11.0635 5.35191 10.7976 5.08571 10.4591 5.08571C10.1286 5.08571 9.85461 5.35191 9.85461 5.67291V8.80464C9.85461 9.12564 10.1286 9.39184 10.4591 9.39184Z" fill="#121924"/>
</svg>
